<svg xmlns="http://www.w3.org/2000/svg" width="32" height="32" viewBox="0 0 32 32">
  <g id="icon-apple" transform="translate(-224 -551)">
    <g id="apple_1_" data-name="apple (1)" transform="translate(228 553)">
      <path id="Path_428" data-name="Path 428" d="M71.86,140.891a.6.6,0,0,0-.426-.271,4.2,4.2,0,0,1-.706-8.173.6.6,0,0,0,.325-.9A7.047,7.047,0,0,0,65.968,128a9.947,9.947,0,0,0-3.163.678,7.636,7.636,0,0,1-2.272.53,7.636,7.636,0,0,1-2.272-.53A9.946,9.946,0,0,0,55.1,128c-2.255,0-6.643,3.2-6.643,9.058,0,5.57,4.063,12.681,7.247,12.681a7.707,7.707,0,0,0,3.5-.807,2.4,2.4,0,0,1,2.657,0,7.707,7.707,0,0,0,3.5.807c2.524,0,5.373-4.333,6.567-8.349A.6.6,0,0,0,71.86,140.891Z" transform="translate(-48.456 -120.753)" fill="#37474f"/>
      <path id="Path_429" data-name="Path 429" d="M241.059,7.247A6.65,6.65,0,0,0,247.7.6a.6.6,0,0,0-.6-.6,6.65,6.65,0,0,0-6.643,6.643A.6.6,0,0,0,241.059,7.247Z" transform="translate(-229.585)" fill="#37474f"/>
    </g>
    <rect id="Rectangle_96" data-name="Rectangle 96" width="32" height="32" transform="translate(224 551)" fill="none"/>
  </g>
</svg>
