<svg xmlns="http://www.w3.org/2000/svg" width="11.9" height="9.736" viewBox="0 0 11.9 9.736">
  <g id="icon-back" transform="translate(-927 -385.984)">
    <path id="Path_19" data-name="Path 19" d="M11.088,209.623H.811a.811.811,0,0,1,0-1.623H11.088a.811.811,0,0,1,0,1.623Zm0,0" transform="translate(927 182.042)" fill="#fff"/>
    <path id="Path_20" data-name="Path 20" d="M123.483,137.721a.812.812,0,0,1-.573-1.386l3.483-3.483-3.483-3.482a.812.812,0,0,1,1.148-1.148l4.057,4.057a.812.812,0,0,1,0,1.148l-4.057,4.057A.81.81,0,0,1,123.483,137.721Zm0,0" transform="translate(810.548 258)" fill="#fff"/>
  </g>
</svg>
