<svg xmlns="http://www.w3.org/2000/svg" width="32" height="32" viewBox="0 0 32 32">
  <g id="icon-fb" transform="translate(-103 -608)">
    <g id="facebook-logo_1_" data-name="facebook-logo (1)" transform="translate(111 610)">
      <path id="Path_431" data-name="Path 431" d="M37.079.006,33.34,0c-4.2,0-6.916,2.785-6.916,7.1v3.272h-3.76a.588.588,0,0,0-.588.588V15.7a.588.588,0,0,0,.588.588h3.76V28.246a.588.588,0,0,0,.588.588h4.905a.588.588,0,0,0,.588-.588V16.284h4.4a.588.588,0,0,0,.588-.588l0-4.74a.588.588,0,0,0-.588-.588h-4.4V7.594c0-1.333.318-2.01,2.054-2.01h2.519A.588.588,0,0,0,37.666,5V.594A.588.588,0,0,0,37.079.006Z" transform="translate(-22.077)" fill="#3b5998"/>
    </g>
    <rect id="Rectangle_96" data-name="Rectangle 96" width="32" height="32" transform="translate(103 608)" fill="none"/>
  </g>
</svg>
