<svg xmlns="http://www.w3.org/2000/svg" width="22" height="22" viewBox="0 0 22 22">
  <g id="Group_449" data-name="Group 449" transform="translate(-40 -310)">
    <rect id="Rectangle_95" data-name="Rectangle 95" width="22" height="22" transform="translate(40 310)" fill="none"/>
    <g id="password_1_" data-name="password (1)" transform="translate(42 312)">
      <path id="Path_15" data-name="Path 15" d="M14.317,19.778h-9.7A1.619,1.619,0,0,1,3,18.161V10.617A1.619,1.619,0,0,1,4.617,9h9.7a1.619,1.619,0,0,1,1.617,1.617v7.544A1.619,1.619,0,0,1,14.317,19.778Zm-9.7-9.7a.54.54,0,0,0-.539.539v7.544a.54.54,0,0,0,.539.539h9.7a.54.54,0,0,0,.539-.539V10.617a.54.54,0,0,0-.539-.539Z" transform="translate(0 -2.533)" fill="#8c8c8c"/>
      <path id="Path_16" data-name="Path 16" d="M14.083,7.544a.539.539,0,0,1-.539-.539V4.311a3.233,3.233,0,0,0-6.467,0V7.006A.539.539,0,1,1,6,7.006V4.311a4.311,4.311,0,1,1,8.622,0V7.006A.539.539,0,0,1,14.083,7.544Z" transform="translate(-0.844)" fill="#8c8c8c"/>
      <path id="Path_17" data-name="Path 17" d="M11.437,15.874a1.437,1.437,0,1,1,1.437-1.437A1.438,1.438,0,0,1,11.437,15.874Zm0-1.8a.359.359,0,1,0,.359.359A.36.36,0,0,0,11.437,14.078Z" transform="translate(-1.97 -3.659)" fill="#8c8c8c"/>
      <path id="Path_18" data-name="Path 18" d="M11.789,18.8a.539.539,0,0,1-.539-.539V16.289a.539.539,0,1,1,1.078,0v1.976A.539.539,0,0,1,11.789,18.8Z" transform="translate(-2.322 -4.433)" fill="#8c8c8c"/>
    </g>
  </g>
</svg>
