<svg xmlns="http://www.w3.org/2000/svg" width="22" height="22" viewBox="0 0 22 22">
  <g id="icon-password-invisible" transform="translate(-356 -310)">
    <g id="Group_19" data-name="Group 19" transform="translate(153.758 177.349)">
      <path id="Path_23" data-name="Path 23" d="M216.382,215.083a9.348,9.348,0,0,1-2.4.74,8.717,8.717,0,0,1-5.715-1.159,17.032,17.032,0,0,1-4.789-4.065.856.856,0,0,1-.023-1.154,18.015,18.015,0,0,1,3.818-3.493l.739.718a17.641,17.641,0,0,0-3.754,3.354c.413.433.8.868,1.223,1.276a14.238,14.238,0,0,0,4.228,2.955,7.147,7.147,0,0,0,5.695.144.25.25,0,0,1,.318.071C215.923,214.675,216.142,214.863,216.382,215.083Z" transform="translate(0 -66.291)" fill="#8c8c8c"/>
      <path id="Path_24" data-name="Path 24" d="M338.269,164.075a8.308,8.308,0,0,1,6.2-.417,13.111,13.111,0,0,1,4.326,2.51,18.667,18.667,0,0,1,2.3,2.3.925.925,0,0,1-.005,1.374,18.4,18.4,0,0,1-3.544,3.245c-.064.045-.131.086-.18.119l-.728-.717a17.744,17.744,0,0,0,3.737-3.334c-.089-.1-.17-.2-.256-.3A15.484,15.484,0,0,0,345.152,165a7.572,7.572,0,0,0-3.42-.762,7.243,7.243,0,0,0-2.471.516.265.265,0,0,1-.337-.074C338.728,164.481,338.513,164.3,338.269,164.075Z" transform="translate(-129.162 -25.437)" fill="#8c8c8c"/>
      <path id="Path_25" data-name="Path 25" d="M273.01,150.286a.351.351,0,0,1-.081.476h0a.351.351,0,0,1-.477.074l-13.388-13.57a.351.351,0,0,1,.081-.476h0a.351.351,0,0,1,.477-.074Z" transform="translate(-53.338 0)" fill="#8c8c8c"/>
      <path id="Path_26" data-name="Path 26" d="M383.774,227.135" transform="translate(-172.691 -86.554)" fill="#8c8c8c"/>
      <path id="Path_27" data-name="Path 27" d="M332.081,260.18a3.535,3.535,0,0,0,3.081,5.194,3.454,3.454,0,0,0,1.638-.41Z" transform="translate(-122.847 -118.164)" fill="#8c8c8c"/>
      <path id="Path_28" data-name="Path 28" d="M383.774,217.759a3.454,3.454,0,0,1,1.666-.426,3.535,3.535,0,0,1,3.089,5.178Z" transform="translate(-172.691 -77.178)" fill="#8c8c8c"/>
    </g>
    <rect id="Rectangle_95" data-name="Rectangle 95" width="22" height="22" transform="translate(356 310)" fill="none"/>
  </g>
</svg>
