<svg xmlns="http://www.w3.org/2000/svg" width="22" height="22" viewBox="0 0 22 22">
  <g id="icon-user" transform="translate(-37 -188)">
    <g id="user_2_" data-name="user (2)" transform="translate(41 191)">
      <path id="Path_21" data-name="Path 21" d="M91.126,8.189a3.962,3.962,0,0,0,2.9-1.2,3.962,3.962,0,0,0,1.2-2.9,3.962,3.962,0,0,0-1.2-2.9,4.094,4.094,0,0,0-5.79,0,3.962,3.962,0,0,0-1.2,2.895,3.962,3.962,0,0,0,1.2,2.9A3.963,3.963,0,0,0,91.126,8.189ZM88.936,1.9a3.1,3.1,0,0,1,4.381,0,2.96,2.96,0,0,1,.908,2.191,2.96,2.96,0,0,1-.908,2.191,3.1,3.1,0,0,1-4.381,0,2.96,2.96,0,0,1-.908-2.191A2.96,2.96,0,0,1,88.936,1.9Zm0,0" transform="translate(-84.142)" fill="#8c8c8c"/>
      <path id="Path_22" data-name="Path 22" d="M14.149,252.177a10.113,10.113,0,0,0-.138-1.074,8.462,8.462,0,0,0-.264-1.08,5.335,5.335,0,0,0-.444-1.007,3.8,3.8,0,0,0-.669-.872,2.952,2.952,0,0,0-.962-.6,3.324,3.324,0,0,0-1.228-.222,1.246,1.246,0,0,0-.665.282c-.2.13-.433.281-.693.447a3.972,3.972,0,0,1-.9.4,3.483,3.483,0,0,1-2.194,0,3.96,3.96,0,0,1-.9-.4c-.258-.165-.491-.315-.694-.447a1.245,1.245,0,0,0-.665-.282,3.319,3.319,0,0,0-1.228.222,2.949,2.949,0,0,0-.962.6,3.8,3.8,0,0,0-.669.872,5.345,5.345,0,0,0-.444,1.007,8.483,8.483,0,0,0-.264,1.08,10.044,10.044,0,0,0-.138,1.075c-.023.325-.034.663-.034,1a2.823,2.823,0,0,0,.838,2.136A3.018,3.018,0,0,0,3,256.1h8.186a3.018,3.018,0,0,0,2.16-.788,2.822,2.822,0,0,0,.839-2.136c0-.343-.012-.68-.034-1Zm-1.491,2.418a2.032,2.032,0,0,1-1.474.513H3a2.032,2.032,0,0,1-1.474-.513A1.843,1.843,0,0,1,1,253.181c0-.319.011-.633.032-.935a9.059,9.059,0,0,1,.125-.967,7.481,7.481,0,0,1,.232-.952,4.351,4.351,0,0,1,.361-.819,2.815,2.815,0,0,1,.492-.645,1.959,1.959,0,0,1,.64-.4,2.293,2.293,0,0,1,.785-.151c.035.019.1.054.2.12.2.133.441.286.7.452a4.936,4.936,0,0,0,1.126.5,4.479,4.479,0,0,0,2.807,0,4.94,4.94,0,0,0,1.127-.5c.267-.171.5-.319.7-.452.1-.066.163-.1.2-.12a2.294,2.294,0,0,1,.785.151,1.961,1.961,0,0,1,.64.4,2.808,2.808,0,0,1,.492.645,4.336,4.336,0,0,1,.361.819,7.465,7.465,0,0,1,.232.952,9.136,9.136,0,0,1,.125.968h0c.021.3.032.615.032.935a1.843,1.843,0,0,1-.529,1.414Zm0,0" transform="translate(0 -239.104)" fill="#8c8c8c"/>
    </g>
    <rect id="Rectangle_95" data-name="Rectangle 95" width="22" height="22" transform="translate(37 188)" fill="none"/>
  </g>
</svg>
