<svg xmlns="http://www.w3.org/2000/svg" width="32" height="32" viewBox="0 0 32 32">
  <g id="icon-viber" transform="translate(-283 -551)">
    <g id="viber" transform="translate(283.62 552.013)">
      <path id="Path_438" data-name="Path 438" d="M28.575,17.354c.894-7.527-.43-12.279-2.818-14.429h0C21.9-.746,8.888-1.289,4.277,3.089c-2.071,2.142-2.8,5.285-2.88,9.177S1.223,23.451,8.018,25.43h.006l-.006,3.021s-.046,1.224.736,1.47c.894.29,1.3-.279,4.08-3.6a25.451,25.451,0,0,0,8.629-.656c.939-.315,6.253-1.018,7.112-8.31Zm-15.283,6.84s-2.944,3.671-3.859,4.623c-.3.31-.628.281-.623-.333,0-.4.022-5.016.022-5.016C3.071,21.818,3.411,15.608,3.473,12.36s.657-5.911,2.41-7.7C9.929.864,21.34,1.712,24.247,4.444,27.8,7.6,26.537,16.5,26.544,16.8c-.731,6.087-5.037,6.473-5.829,6.737a23.481,23.481,0,0,1-7.423.657Z" transform="translate(0 0)" fill="#8e24aa"/>
      <path id="Path_439" data-name="Path 439" d="M12.294,4.3a.378.378,0,0,0,0,.756c3.73.029,6.8,2.629,6.836,7.4a.366.366,0,1,0,.731-.006h0c-.04-5.139-3.395-8.119-7.566-8.148Z" transform="translate(2.627 1.073)" fill="#8e24aa"/>
      <path id="Path_440" data-name="Path 440" d="M17.073,11.269a.366.366,0,1,0,.731.017,5.058,5.058,0,0,0-4.969-5.414.379.379,0,0,0-.051.756,4.312,4.312,0,0,1,4.29,4.641Z" transform="translate(2.755 1.465)" fill="#8e24aa"/>
      <path id="Path_441" data-name="Path 441" d="M17.834,14.711a1.154,1.154,0,0,0-1.5.216l-.543.7a.972.972,0,0,1-.792.31c-3.764-1-4.771-4.934-4.771-4.934a1.05,1.05,0,0,1,.3-.819l.679-.562a1.251,1.251,0,0,0,.209-1.557A16.23,16.23,0,0,0,9.549,5.38,1,1,0,0,0,8.2,5.151H8.186C7.106,5.783,5.923,6.966,6.3,8.183c.646,1.284,1.832,5.377,5.614,8.469A21.588,21.588,0,0,0,17.7,19.959l.011.017c1.176.392,2.32-.837,2.931-1.95v-.009a1.071,1.071,0,0,0-.215-1.381,14.724,14.724,0,0,0-2.593-1.926Z" transform="translate(1.207 1.245)" fill="#8e24aa"/>
      <path id="Path_442" data-name="Path 442" d="M13.237,8.255c1.2.07,1.782.7,1.845,1.985a.366.366,0,1,0,.731-.035A2.507,2.507,0,0,0,13.277,7.5a.379.379,0,0,0-.04.756Z" transform="translate(2.866 1.87)" fill="#8e24aa"/>
    </g>
    <rect id="Rectangle_96" data-name="Rectangle 96" width="32" height="32" transform="translate(283 551)" fill="none"/>
  </g>
</svg>
