<svg xmlns="http://www.w3.org/2000/svg" width="24" height="24" viewBox="0 0 24 24">
  <g id="icon-about" transform="translate(-26 -228)">
    <g id="user_3_" data-name="user (3)" transform="translate(29 229)">
      <path id="Path_409" data-name="Path 409" d="M92.421,10.778A5.215,5.215,0,0,0,96.231,9.2a5.215,5.215,0,0,0,1.579-3.81,5.215,5.215,0,0,0-1.579-3.81,5.388,5.388,0,0,0-7.62,0,5.214,5.214,0,0,0-1.579,3.81A5.215,5.215,0,0,0,88.611,9.2,5.216,5.216,0,0,0,92.421,10.778ZM89.538,2.506a4.076,4.076,0,0,1,5.766,0A3.9,3.9,0,0,1,96.5,5.389,3.9,3.9,0,0,1,95.3,8.272a4.076,4.076,0,0,1-5.766,0,3.9,3.9,0,0,1-1.195-2.883,3.9,3.9,0,0,1,1.195-2.883Zm0,0" transform="translate(-83.229 0)" fill="#fad200"/>
      <path id="Path_410" data-name="Path 410" d="M18.622,253.713a13.311,13.311,0,0,0-.181-1.414,11.14,11.14,0,0,0-.348-1.421,7.02,7.02,0,0,0-.584-1.326,5,5,0,0,0-.881-1.148,3.885,3.885,0,0,0-1.266-.8,4.375,4.375,0,0,0-1.616-.292,1.64,1.64,0,0,0-.876.371c-.263.171-.57.369-.912.588a5.227,5.227,0,0,1-1.181.52,4.585,4.585,0,0,1-2.888,0,5.212,5.212,0,0,1-1.18-.52c-.34-.217-.647-.415-.913-.589a1.639,1.639,0,0,0-.876-.371,4.369,4.369,0,0,0-1.616.293,3.882,3.882,0,0,0-1.266.8,5,5,0,0,0-.881,1.148,7.034,7.034,0,0,0-.584,1.326A11.165,11.165,0,0,0,.226,252.3a13.222,13.222,0,0,0-.181,1.414c-.03.427-.045.872-.045,1.321a3.715,3.715,0,0,0,1.1,2.811,3.972,3.972,0,0,0,2.843,1.037H14.72a3.972,3.972,0,0,0,2.843-1.037,3.714,3.714,0,0,0,1.1-2.811c0-.451-.015-.9-.045-1.322ZM16.659,256.9a2.674,2.674,0,0,1-1.939.676H3.947a2.674,2.674,0,0,1-1.939-.676,2.426,2.426,0,0,1-.7-1.861c0-.419.014-.833.041-1.231a11.926,11.926,0,0,1,.164-1.273,9.848,9.848,0,0,1,.306-1.253A5.728,5.728,0,0,1,2.3,250.2a3.7,3.7,0,0,1,.647-.849,2.577,2.577,0,0,1,.842-.524,3.016,3.016,0,0,1,1.033-.2c.046.024.128.071.26.157.27.176.58.376.924.6a6.5,6.5,0,0,0,1.482.662,5.894,5.894,0,0,0,3.694,0,6.5,6.5,0,0,0,1.483-.663c.351-.225.653-.419.923-.6.132-.086.214-.133.26-.157a3.018,3.018,0,0,1,1.033.2,2.581,2.581,0,0,1,.842.524,3.7,3.7,0,0,1,.647.849,5.707,5.707,0,0,1,.476,1.078,9.825,9.825,0,0,1,.306,1.253,12.026,12.026,0,0,1,.164,1.274h0c.028.4.042.81.042,1.23a2.426,2.426,0,0,1-.7,1.861Zm0,0" transform="translate(0 -236.508)" fill="#fad200"/>
    </g>
    <rect id="Rectangle_97" data-name="Rectangle 97" width="24" height="24" transform="translate(26 228)" fill="none"/>
  </g>
</svg>
