<svg xmlns="http://www.w3.org/2000/svg" width="24" height="24" viewBox="0 0 24 24">
  <g id="icon-academy" transform="translate(-187 -228)">
    <path id="mortarboard_2_" data-name="mortarboard (2)" d="M22.194,46.368V37.54l1.012-.337a.694.694,0,0,0,0-1.316L12.06,32.171a.694.694,0,0,0-.439,0L.474,35.886a.694.694,0,0,0,0,1.316l3.984,1.328v6.188a.694.694,0,0,0,.2.491,10.152,10.152,0,0,0,14.357,0,.694.694,0,0,0,.2-.49V38.531L20.807,38v8.365a2.183,2.183,0,0,0-1.486,2.066v3.715a.694.694,0,0,0,.694.694h2.972a.694.694,0,0,0,.694-.694V48.434A2.183,2.183,0,0,0,22.194,46.368Zm-4.36-1.943a8.776,8.776,0,0,1-11.988,0V38.993l5.775,1.925a.7.7,0,0,0,.439,0l5.775-1.925Zm-5.994-4.9L2.888,36.544,11.84,33.56l8.952,2.984ZM22.293,51.456H20.708V48.434a.792.792,0,0,1,1.585,0Z" transform="translate(187 197.865)" fill="#fad200"/>
    <rect id="Rectangle_97" data-name="Rectangle 97" width="24" height="24" transform="translate(187 228)" fill="none"/>
  </g>
</svg>
