<svg xmlns="http://www.w3.org/2000/svg" width="14" height="14" viewBox="0 0 14 14">
  <g id="marker-icon" transform="translate(-145 -379)">
    <g id="maps-and-flags_1_" data-name="maps-and-flags (1)" transform="translate(76.427 380)">
      <g id="Group_979" data-name="Group 979" transform="translate(70.573)">
        <path id="Path_997" data-name="Path 997" d="M75.173,0a4.605,4.605,0,0,0-4.6,4.6c0,3.148,4.117,7.769,4.292,7.964a.414.414,0,0,0,.616,0c.175-.2,4.292-4.816,4.292-7.964A4.605,4.605,0,0,0,75.173,0Zm0,6.914A2.314,2.314,0,1,1,77.487,4.6,2.317,2.317,0,0,1,75.173,6.914Z" transform="translate(-70.573)" fill="#9a9a9a"/>
      </g>
    </g>
    <rect id="Rectangle_203" data-name="Rectangle 203" width="14" height="14" transform="translate(145 379)" fill="none"/>
  </g>
</svg>
