<svg id="icon-edit" xmlns="http://www.w3.org/2000/svg" width="14.214" height="14.214" viewBox="0 0 14.214 14.214">
  <g id="pencil">
    <g id="Group_372" data-name="Group 372">
      <path id="Path_406" data-name="Path 406" d="M13.772,1.73,12.484.442a1.511,1.511,0,0,0-2.135,0L.766,10.025a.424.424,0,0,0-.115.219L.007,13.722a.416.416,0,0,0,.485.485l3.478-.644a.424.424,0,0,0,.219-.115l9.583-9.584A1.509,1.509,0,0,0,13.772,1.73ZM.936,13.278l.39-2.1L3.04,12.888Zm2.958-.713L1.649,10.32l8.2-8.2L12.09,4.369Zm9.289-9.289-.5.5L10.434,1.535l.5-.5a.677.677,0,0,1,.957,0l1.288,1.288A.676.676,0,0,1,13.183,3.275Z" transform="translate(0 0)" fill="#dda601"/>
    </g>
  </g>
  <path id="Path_407" data-name="Path 407" d="M3457.666,1222l-.666,3.331,3.415-.694Z" transform="translate(-3456.556 -1211.534)" fill="#dda601"/>
  <path id="Path_408" data-name="Path 408" d="M3799,860.11l2.721,2.887,1.36-1.721L3800.693,859Z" transform="translate(-3789.061 -858.611)" fill="#dda601"/>
</svg>
