<svg xmlns="http://www.w3.org/2000/svg" width="14" height="14" viewBox="0 0 14 14">
  <g id="envelop-icon" transform="translate(-145 -424)">
    <g id="email_2_" data-name="email (2)" transform="translate(146 365)">
      <g id="Group_972" data-name="Group 972" transform="translate(0.603 61)">
        <g id="Group_971" data-name="Group 971" transform="translate(0 0)">
          <path id="Path_993" data-name="Path 993" d="M36.063,61H26.173a1.042,1.042,0,0,0-.452.106l5.374,5.374,1.2-1.158h0l4.216-4.216A1.043,1.043,0,0,0,36.063,61Z" transform="translate(-25.721 -61)" fill="#9a9a9a"/>
        </g>
      </g>
      <g id="Group_974" data-name="Group 974" transform="translate(7.927 61.603)">
        <g id="Group_973" data-name="Group 973" transform="translate(0 0)">
          <path id="Path_994" data-name="Path 994" d="M342.181,86.728,338.213,90.7l3.967,3.967a1.042,1.042,0,0,0,.106-.452V87.18A1.043,1.043,0,0,0,342.181,86.728Z" transform="translate(-338.213 -86.728)" fill="#9a9a9a"/>
        </g>
      </g>
      <g id="Group_976" data-name="Group 976" transform="translate(0 61.603)">
        <g id="Group_975" data-name="Group 975" transform="translate(0 0)">
          <path id="Path_995" data-name="Path 995" d="M.106,86.721A1.042,1.042,0,0,0,0,87.173V94.2a1.043,1.043,0,0,0,.106.452l3.968-3.967Z" transform="translate(0 -86.721)" fill="#9a9a9a"/>
        </g>
      </g>
      <g id="Group_978" data-name="Group 978" transform="translate(0.603 66.067)">
        <g id="Group_977" data-name="Group 977">
          <path id="Path_996" data-name="Path 996" d="M32.541,277.211l-1.2,1.158a.351.351,0,0,1-.5,0l-1.158-1.158-3.968,3.967a1.043,1.043,0,0,0,.452.106h9.891a1.042,1.042,0,0,0,.452-.106Z" transform="translate(-25.714 -277.211)" fill="#9a9a9a"/>
        </g>
      </g>
    </g>
    <rect id="Rectangle_203" data-name="Rectangle 203" width="14" height="14" transform="translate(145 424)" fill="none"/>
  </g>
</svg>
