<svg xmlns="http://www.w3.org/2000/svg" width="22" height="22" viewBox="0 0 22 22">
  <g id="icon-email-r" transform="translate(-27 -688)">
    <g id="Group_418" data-name="Group 418" transform="translate(28 691)">
      <path id="Path_435" data-name="Path 435" d="M344.81,267.752c0,3.393-.016,6.686.008,9.978a2.415,2.415,0,0,0,2.378,2.318q7.574.013,15.147,0a2.406,2.406,0,0,0,2.409-2.332c.021-3.262.006-6.523,0-9.785a.869.869,0,0,0-.04-.149c-.155.1-.3.179-.434.268-2.962,1.915-5.928,3.825-8.881,5.754a.962.962,0,0,1-1.207.012c-2.952-1.931-5.919-3.84-8.881-5.755C345.171,267.971,345.026,267.885,344.81,267.752Z" transform="translate(-344.805 -264.084)" fill="#dda601"/>
      <path id="Path_436" data-name="Path 436" d="M355.464,238.8c-2.485,0-4.969,0-7.454,0a2.438,2.438,0,0,0-2.335,1.625.491.491,0,0,0,.222.7q4.592,2.947,9.16,5.933a.658.658,0,0,0,.844.014q4.609-3.009,9.242-5.981a.434.434,0,0,0,.2-.588,2.463,2.463,0,0,0-2.331-1.7C360.5,238.794,357.981,238.8,355.464,238.8Z" transform="translate(-345.511 -238.796)" fill="#dda601"/>
    </g>
    <rect id="Rectangle_99" data-name="Rectangle 99" width="22" height="22" transform="translate(27 688)" fill="none"/>
  </g>
</svg>
