<svg id="flag-US" xmlns="http://www.w3.org/2000/svg" width="22" height="15" viewBox="0 0 22 15">
  <path id="Path_934" data-name="Path 934" d="M20.352,88.276H1.648A1.682,1.682,0,0,0,0,89.991v11.571a1.682,1.682,0,0,0,1.648,1.715h18.7A1.682,1.682,0,0,0,22,101.561V89.991A1.682,1.682,0,0,0,20.352,88.276Z" transform="translate(0 -88.276)" fill="#f5f5f5"/>
  <g id="Group_917" data-name="Group 917" transform="translate(0 0)">
    <path id="Path_935" data-name="Path 935" d="M2.109,89.4H23.925a1.65,1.65,0,0,0-1.557-1.128H3.666A1.65,1.65,0,0,0,2.109,89.4Z" transform="translate(-2.017 -88.276)" fill="#ff4b55"/>
    <rect id="Rectangle_184" data-name="Rectangle 184" width="22" height="1.128" transform="translate(0 4.624)" fill="#ff4b55"/>
    <rect id="Rectangle_185" data-name="Rectangle 185" width="22" height="1.128" transform="translate(0 2.312)" fill="#ff4b55"/>
    <path id="Path_936" data-name="Path 936" d="M0,243.84a.383.383,0,0,0,.379.386H22V243.1H0Z" transform="translate(0 -236.162)" fill="#ff4b55"/>
    <rect id="Rectangle_186" data-name="Rectangle 186" width="22" height="1.128" transform="translate(0 11.56)" fill="#ff4b55"/>
    <path id="Path_937" data-name="Path 937" d="M23.925,397.92H2.109a1.65,1.65,0,0,0,1.557,1.128h18.7A1.65,1.65,0,0,0,23.925,397.92Z" transform="translate(-2.017 -384.048)" fill="#ff4b55"/>
    <rect id="Rectangle_187" data-name="Rectangle 187" width="22" height="1.128" transform="translate(0 9.248)" fill="#ff4b55"/>
  </g>
  <path id="Path_938" data-name="Path 938" d="M.386,96.172h9.649a.386.386,0,0,0,.386-.386V88.661a.386.386,0,0,0-.386-.386H1.677A1.677,1.677,0,0,0,0,89.952v5.835A.386.386,0,0,0,.386,96.172Z" transform="translate(0 -88.275)" fill="#41479b"/>
  <g id="Group_918" data-name="Group 918" transform="translate(0.623 0.861)">
    <path id="Path_939" data-name="Path 939" d="M14.713,107.993l.085.256.27,0a.036.036,0,0,1,.021.066l-.217.16.081.257a.036.036,0,0,1-.056.041l-.22-.157-.22.157a.036.036,0,0,1-.056-.041l.081-.257-.217-.16a.036.036,0,0,1,.021-.066l.27,0,.085-.256A.036.036,0,0,1,14.713,107.993Z" transform="translate(-14.253 -107.968)" fill="#f5f5f5"/>
    <path id="Path_940" data-name="Path 940" d="M14.713,138.647l.085.256.27,0a.036.036,0,0,1,.021.066l-.217.16.081.257a.036.036,0,0,1-.056.041l-.22-.157-.22.157a.036.036,0,0,1-.056-.041l.081-.257-.217-.16a.036.036,0,0,1,.021-.066l.27,0,.085-.256A.036.036,0,0,1,14.713,138.647Z" transform="translate(-14.253 -137.282)" fill="#f5f5f5"/>
    <path id="Path_941" data-name="Path 941" d="M14.713,169.3l.085.256.27,0a.036.036,0,0,1,.021.066l-.217.16.081.257a.036.036,0,0,1-.056.041l-.22-.157-.22.157a.036.036,0,0,1-.056-.041l.081-.257-.217-.16a.036.036,0,0,1,.021-.066l.27,0,.085-.256A.036.036,0,0,1,14.713,169.3Z" transform="translate(-14.253 -166.596)" fill="#f5f5f5"/>
    <path id="Path_942" data-name="Path 942" d="M14.713,199.956l.085.256.27,0a.036.036,0,0,1,.021.066l-.217.16.081.257a.036.036,0,0,1-.056.041l-.22-.157-.22.157a.036.036,0,0,1-.056-.041l.081-.257-.217-.16a.036.036,0,0,1,.021-.066l.27,0,.085-.256A.036.036,0,0,1,14.713,199.956Z" transform="translate(-14.253 -195.91)" fill="#f5f5f5"/>
    <path id="Path_943" data-name="Path 943" d="M14.713,230.61l.085.256.27,0a.036.036,0,0,1,.021.066l-.217.16.081.257a.036.036,0,0,1-.056.041l-.22-.157-.22.157a.036.036,0,0,1-.056-.041l.081-.257-.217-.16a.036.036,0,0,1,.021-.066l.27,0,.085-.256A.036.036,0,0,1,14.713,230.61Z" transform="translate(-14.253 -225.225)" fill="#f5f5f5"/>
    <path id="Path_944" data-name="Path 944" d="M38.506,123.022l.085.256.27,0a.036.036,0,0,1,.021.066l-.217.16.082.257a.036.036,0,0,1-.056.041l-.22-.157-.22.157a.036.036,0,0,1-.056-.041l.081-.257-.217-.16a.036.036,0,0,1,.021-.066l.27,0,.085-.256A.036.036,0,0,1,38.506,123.022Z" transform="translate(-37.005 -122.34)" fill="#f5f5f5"/>
    <path id="Path_945" data-name="Path 945" d="M38.506,153.677l.085.256.27,0a.036.036,0,0,1,.021.066l-.217.16.082.257a.036.036,0,0,1-.056.041l-.22-.157-.22.157a.036.036,0,0,1-.056-.041l.081-.257L38.06,154a.036.036,0,0,1,.021-.066l.27,0,.085-.256A.036.036,0,0,1,38.506,153.677Z" transform="translate(-37.005 -151.654)" fill="#f5f5f5"/>
    <path id="Path_946" data-name="Path 946" d="M38.506,184.331l.085.256.27,0a.036.036,0,0,1,.021.066l-.217.16.082.258a.036.036,0,0,1-.056.041l-.22-.157-.22.157a.036.036,0,0,1-.056-.041l.081-.258-.217-.16a.036.036,0,0,1,.021-.066l.27,0,.085-.256A.036.036,0,0,1,38.506,184.331Z" transform="translate(-37.005 -180.968)" fill="#f5f5f5"/>
    <path id="Path_947" data-name="Path 947" d="M38.506,214.985l.085.256.27,0a.036.036,0,0,1,.021.066l-.217.16.082.257a.036.036,0,0,1-.056.041l-.22-.157-.22.157a.036.036,0,0,1-.056-.041l.081-.257-.217-.16a.036.036,0,0,1,.021-.066l.27,0,.085-.256A.036.036,0,0,1,38.506,214.985Z" transform="translate(-37.005 -210.283)" fill="#f5f5f5"/>
    <path id="Path_948" data-name="Path 948" d="M62.3,107.993l.085.256.27,0a.036.036,0,0,1,.021.066l-.217.16.082.257a.036.036,0,0,1-.056.041l-.22-.157-.22.157a.036.036,0,0,1-.056-.041l.081-.257-.217-.16a.036.036,0,0,1,.021-.066l.27,0,.085-.256A.036.036,0,0,1,62.3,107.993Z" transform="translate(-59.758 -107.968)" fill="#f5f5f5"/>
    <path id="Path_949" data-name="Path 949" d="M62.3,138.647l.085.256.27,0a.036.036,0,0,1,.021.066l-.217.16.082.257a.036.036,0,0,1-.056.041l-.22-.157-.22.157a.036.036,0,0,1-.056-.041l.081-.257-.217-.16a.036.036,0,0,1,.021-.066l.27,0,.085-.256A.036.036,0,0,1,62.3,138.647Z" transform="translate(-59.758 -137.282)" fill="#f5f5f5"/>
    <path id="Path_950" data-name="Path 950" d="M62.3,169.3l.085.256.27,0a.036.036,0,0,1,.021.066l-.217.16.082.257a.036.036,0,0,1-.056.041l-.22-.157-.22.157a.036.036,0,0,1-.056-.041l.081-.257-.217-.16a.036.036,0,0,1,.021-.066l.27,0,.085-.256A.036.036,0,0,1,62.3,169.3Z" transform="translate(-59.758 -166.596)" fill="#f5f5f5"/>
    <path id="Path_951" data-name="Path 951" d="M62.3,199.956l.085.256.27,0a.036.036,0,0,1,.021.066l-.217.16.082.257a.036.036,0,0,1-.056.041l-.22-.157-.22.157a.036.036,0,0,1-.056-.041l.081-.257-.217-.16a.036.036,0,0,1,.021-.066l.27,0,.085-.256A.036.036,0,0,1,62.3,199.956Z" transform="translate(-59.758 -195.91)" fill="#f5f5f5"/>
    <path id="Path_952" data-name="Path 952" d="M62.3,230.61l.085.256.27,0a.036.036,0,0,1,.021.066l-.217.16.082.257a.036.036,0,0,1-.056.041l-.22-.157-.22.157a.036.036,0,0,1-.056-.041l.081-.257-.217-.16a.036.036,0,0,1,.021-.066l.27,0,.085-.256A.036.036,0,0,1,62.3,230.61Z" transform="translate(-59.758 -225.224)" fill="#f5f5f5"/>
    <path id="Path_953" data-name="Path 953" d="M86.093,123.022l.085.256.27,0a.036.036,0,0,1,.021.066l-.217.16.081.257a.036.036,0,0,1-.056.041l-.22-.157-.22.157a.036.036,0,0,1-.056-.041l.081-.257-.217-.16a.036.036,0,0,1,.021-.066l.27,0,.085-.256A.036.036,0,0,1,86.093,123.022Z" transform="translate(-82.512 -122.34)" fill="#f5f5f5"/>
    <path id="Path_954" data-name="Path 954" d="M86.093,153.677l.085.256.27,0a.036.036,0,0,1,.021.066l-.217.16.081.257a.036.036,0,0,1-.056.041l-.22-.157-.22.157a.036.036,0,0,1-.056-.041l.081-.257-.217-.16a.036.036,0,0,1,.021-.066l.27,0,.085-.256A.036.036,0,0,1,86.093,153.677Z" transform="translate(-82.512 -151.654)" fill="#f5f5f5"/>
    <path id="Path_955" data-name="Path 955" d="M86.093,184.331l.085.256.27,0a.036.036,0,0,1,.021.066l-.217.16.081.258a.036.036,0,0,1-.056.041l-.22-.157-.22.157a.036.036,0,0,1-.056-.041l.081-.258-.217-.16a.036.036,0,0,1,.021-.066l.27,0,.085-.256A.036.036,0,0,1,86.093,184.331Z" transform="translate(-82.512 -180.968)" fill="#f5f5f5"/>
    <path id="Path_956" data-name="Path 956" d="M86.093,214.985l.085.256.27,0a.036.036,0,0,1,.021.066l-.217.16.081.257a.036.036,0,0,1-.056.041l-.22-.157-.22.157a.036.036,0,0,1-.056-.041l.081-.257-.217-.16a.036.036,0,0,1,.021-.066l.27,0,.085-.256A.036.036,0,0,1,86.093,214.985Z" transform="translate(-82.512 -210.283)" fill="#f5f5f5"/>
    <path id="Path_957" data-name="Path 957" d="M109.885,107.993l.085.256.27,0a.036.036,0,0,1,.021.066l-.217.16.081.257a.036.036,0,0,1-.056.041l-.22-.157-.22.157a.036.036,0,0,1-.056-.041l.082-.257-.217-.16a.036.036,0,0,1,.021-.066l.27,0,.085-.256A.036.036,0,0,1,109.885,107.993Z" transform="translate(-105.263 -107.968)" fill="#f5f5f5"/>
    <path id="Path_958" data-name="Path 958" d="M109.885,138.647l.085.256.27,0a.036.036,0,0,1,.021.066l-.217.16.081.257a.036.036,0,0,1-.056.041l-.22-.157-.22.157a.036.036,0,0,1-.056-.041l.082-.257-.217-.16a.036.036,0,0,1,.021-.066l.27,0,.085-.256A.036.036,0,0,1,109.885,138.647Z" transform="translate(-105.263 -137.282)" fill="#f5f5f5"/>
    <path id="Path_959" data-name="Path 959" d="M109.885,169.3l.085.256.27,0a.036.036,0,0,1,.021.066l-.217.16.081.257a.036.036,0,0,1-.056.041l-.22-.157-.22.157a.036.036,0,0,1-.056-.041l.082-.257-.217-.16a.036.036,0,0,1,.021-.066l.27,0,.085-.256A.036.036,0,0,1,109.885,169.3Z" transform="translate(-105.263 -166.596)" fill="#f5f5f5"/>
    <path id="Path_960" data-name="Path 960" d="M109.885,199.956l.085.256.27,0a.036.036,0,0,1,.021.066l-.217.16.081.257a.036.036,0,0,1-.056.041l-.22-.157-.22.157a.036.036,0,0,1-.056-.041l.082-.257-.217-.16a.036.036,0,0,1,.021-.066l.27,0,.085-.256A.036.036,0,0,1,109.885,199.956Z" transform="translate(-105.263 -195.91)" fill="#f5f5f5"/>
    <path id="Path_961" data-name="Path 961" d="M109.885,230.61l.085.256.27,0a.036.036,0,0,1,.021.066l-.217.16.081.257a.036.036,0,0,1-.056.041l-.22-.157-.22.157a.036.036,0,0,1-.056-.041l.082-.257-.217-.16a.036.036,0,0,1,.021-.066l.27,0,.085-.256A.036.036,0,0,1,109.885,230.61Z" transform="translate(-105.263 -225.224)" fill="#f5f5f5"/>
    <path id="Path_962" data-name="Path 962" d="M133.679,123.022l.085.256.27,0a.036.036,0,0,1,.021.066l-.217.16.081.257a.036.036,0,0,1-.056.041l-.22-.157-.22.157a.036.036,0,0,1-.056-.041l.081-.257-.217-.16a.036.036,0,0,1,.021-.066l.27,0,.085-.256A.036.036,0,0,1,133.679,123.022Z" transform="translate(-128.017 -122.34)" fill="#f5f5f5"/>
    <path id="Path_963" data-name="Path 963" d="M133.679,153.677l.085.256.27,0a.036.036,0,0,1,.021.066l-.217.16.081.257a.036.036,0,0,1-.056.041l-.22-.157-.22.157a.036.036,0,0,1-.056-.041l.081-.257-.217-.16a.036.036,0,0,1,.021-.066l.27,0,.085-.256A.036.036,0,0,1,133.679,153.677Z" transform="translate(-128.017 -151.654)" fill="#f5f5f5"/>
    <path id="Path_964" data-name="Path 964" d="M133.679,184.331l.085.256.27,0a.036.036,0,0,1,.021.066l-.217.16.081.258a.036.036,0,0,1-.056.041l-.22-.157-.22.157a.036.036,0,0,1-.056-.041l.081-.258-.217-.16a.036.036,0,0,1,.021-.066l.27,0,.085-.256A.036.036,0,0,1,133.679,184.331Z" transform="translate(-128.017 -180.968)" fill="#f5f5f5"/>
    <path id="Path_965" data-name="Path 965" d="M133.679,214.985l.085.256.27,0a.036.036,0,0,1,.021.066l-.217.16.081.257a.036.036,0,0,1-.056.041l-.22-.157-.22.157a.036.036,0,0,1-.056-.041l.081-.257-.217-.16a.036.036,0,0,1,.021-.066l.27,0,.085-.256A.036.036,0,0,1,133.679,214.985Z" transform="translate(-128.017 -210.283)" fill="#f5f5f5"/>
    <path id="Path_966" data-name="Path 966" d="M157.473,107.993l.085.256.27,0a.036.036,0,0,1,.021.066l-.217.16.082.257a.036.036,0,0,1-.056.041l-.22-.157-.22.157a.036.036,0,0,1-.056-.041l.081-.257-.217-.16a.036.036,0,0,1,.021-.066l.27,0,.085-.256A.036.036,0,0,1,157.473,107.993Z" transform="translate(-150.771 -107.968)" fill="#f5f5f5"/>
    <path id="Path_967" data-name="Path 967" d="M157.473,138.647l.085.256.27,0a.036.036,0,0,1,.021.066l-.217.16.082.257a.036.036,0,0,1-.056.041l-.22-.157-.22.157a.036.036,0,0,1-.056-.041l.081-.257-.217-.16a.036.036,0,0,1,.021-.066l.27,0,.085-.256A.036.036,0,0,1,157.473,138.647Z" transform="translate(-150.771 -137.282)" fill="#f5f5f5"/>
    <path id="Path_968" data-name="Path 968" d="M157.473,169.3l.085.256.27,0a.036.036,0,0,1,.021.066l-.217.16.082.257a.036.036,0,0,1-.056.041l-.22-.157-.22.157a.036.036,0,0,1-.056-.041l.081-.257-.217-.16a.036.036,0,0,1,.021-.066l.27,0,.085-.256A.036.036,0,0,1,157.473,169.3Z" transform="translate(-150.771 -166.596)" fill="#f5f5f5"/>
    <path id="Path_969" data-name="Path 969" d="M157.473,199.956l.085.256.27,0a.036.036,0,0,1,.021.066l-.217.16.082.257a.036.036,0,0,1-.056.041l-.22-.157-.22.157a.036.036,0,0,1-.056-.041l.081-.257-.217-.16a.036.036,0,0,1,.021-.066l.27,0,.085-.256A.036.036,0,0,1,157.473,199.956Z" transform="translate(-150.771 -195.91)" fill="#f5f5f5"/>
    <path id="Path_970" data-name="Path 970" d="M157.473,230.61l.085.256.27,0a.036.036,0,0,1,.021.066l-.217.16.082.257a.036.036,0,0,1-.056.041l-.22-.157-.22.157a.036.036,0,0,1-.056-.041l.081-.257-.217-.16a.036.036,0,0,1,.021-.066l.27,0,.085-.256A.036.036,0,0,1,157.473,230.61Z" transform="translate(-150.771 -225.224)" fill="#f5f5f5"/>
    <path id="Path_971" data-name="Path 971" d="M181.266,123.022l.085.256.27,0a.036.036,0,0,1,.021.066l-.217.16.082.257a.036.036,0,0,1-.056.041l-.22-.157-.22.157a.036.036,0,0,1-.056-.041l.081-.257-.217-.16a.036.036,0,0,1,.021-.066l.27,0,.085-.256A.036.036,0,0,1,181.266,123.022Z" transform="translate(-173.524 -122.34)" fill="#f5f5f5"/>
    <path id="Path_972" data-name="Path 972" d="M181.266,153.677l.085.256.27,0a.036.036,0,0,1,.021.066l-.217.16.082.257a.036.036,0,0,1-.056.041l-.22-.157-.22.157a.036.036,0,0,1-.056-.041l.081-.257-.217-.16a.036.036,0,0,1,.021-.066l.27,0,.085-.256A.036.036,0,0,1,181.266,153.677Z" transform="translate(-173.524 -151.654)" fill="#f5f5f5"/>
    <path id="Path_973" data-name="Path 973" d="M181.266,184.331l.085.256.27,0a.036.036,0,0,1,.021.066l-.217.16.082.258a.036.036,0,0,1-.056.041l-.22-.157-.22.157a.036.036,0,0,1-.056-.041l.081-.258-.217-.16a.036.036,0,0,1,.021-.066l.27,0,.085-.256A.036.036,0,0,1,181.266,184.331Z" transform="translate(-173.524 -180.968)" fill="#f5f5f5"/>
    <path id="Path_974" data-name="Path 974" d="M181.266,214.985l.085.256.27,0a.036.036,0,0,1,.021.066l-.217.16.082.257a.036.036,0,0,1-.056.041l-.22-.157-.22.157a.036.036,0,0,1-.056-.041l.081-.257-.217-.16a.036.036,0,0,1,.021-.066l.27,0,.085-.256A.036.036,0,0,1,181.266,214.985Z" transform="translate(-173.524 -210.283)" fill="#f5f5f5"/>
    <path id="Path_975" data-name="Path 975" d="M205.06,107.993l.085.256.27,0a.036.036,0,0,1,.021.066l-.217.16.081.257a.036.036,0,0,1-.056.041l-.22-.157-.22.157a.036.036,0,0,1-.056-.041l.081-.257-.217-.16a.036.036,0,0,1,.021-.066l.27,0,.085-.256A.036.036,0,0,1,205.06,107.993Z" transform="translate(-196.277 -107.968)" fill="#f5f5f5"/>
    <path id="Path_976" data-name="Path 976" d="M205.06,138.647l.085.256.27,0a.036.036,0,0,1,.021.066l-.217.16.081.257a.036.036,0,0,1-.056.041l-.22-.157-.22.157a.036.036,0,0,1-.056-.041l.081-.257-.217-.16a.036.036,0,0,1,.021-.066l.27,0,.085-.256A.036.036,0,0,1,205.06,138.647Z" transform="translate(-196.277 -137.282)" fill="#f5f5f5"/>
    <path id="Path_977" data-name="Path 977" d="M205.06,169.3l.085.256.27,0a.036.036,0,0,1,.021.066l-.217.16.081.257a.036.036,0,0,1-.056.041l-.22-.157-.22.157a.036.036,0,0,1-.056-.041l.081-.257-.217-.16a.036.036,0,0,1,.021-.066l.27,0,.085-.256A.036.036,0,0,1,205.06,169.3Z" transform="translate(-196.277 -166.596)" fill="#f5f5f5"/>
    <path id="Path_978" data-name="Path 978" d="M205.06,199.956l.085.256.27,0a.036.036,0,0,1,.021.066l-.217.16.081.257a.036.036,0,0,1-.056.041l-.22-.157-.22.157a.036.036,0,0,1-.056-.041l.081-.257-.217-.16a.036.036,0,0,1,.021-.066l.27,0,.085-.256A.036.036,0,0,1,205.06,199.956Z" transform="translate(-196.277 -195.91)" fill="#f5f5f5"/>
    <path id="Path_979" data-name="Path 979" d="M205.06,230.61l.085.256.27,0a.036.036,0,0,1,.021.066l-.217.16.081.257a.036.036,0,0,1-.056.041l-.22-.157-.22.157a.036.036,0,0,1-.056-.041l.081-.257-.217-.16a.036.036,0,0,1,.021-.066l.27,0,.085-.256A.036.036,0,0,1,205.06,230.61Z" transform="translate(-196.277 -225.224)" fill="#f5f5f5"/>
  </g>
</svg>
