<svg xmlns="http://www.w3.org/2000/svg" width="9.67" height="13.183" viewBox="0 0 9.67 13.183">
  <path id="icon-save" d="M353.673,191.626q0,2.62,0,5.24c0,.233-.022.44-.255.559s-.4-.008-.574-.13c-1.25-.875-2.5-1.745-3.748-2.63a.375.375,0,0,0-.518,0c-1.244.885-2.5,1.756-3.746,2.632-.175.123-.349.24-.575.121s-.254-.329-.254-.561q0-5.209,0-10.417a2.1,2.1,0,0,1,2.167-2.154q2.667,0,5.334,0a2.1,2.1,0,0,1,2.162,2.158Q353.675,189.038,353.673,191.626Zm-.892,4.551c.008-.1.014-.141.014-.182q0-4.784,0-9.568a1.223,1.223,0,0,0-1.278-1.258q-2.666-.007-5.333,0a1.236,1.236,0,0,0-1.3,1.3q0,4.721,0,9.442a2.448,2.448,0,0,0,.027.248c.083-.056.135-.09.186-.125,1.113-.779,2.232-1.551,3.336-2.342a.6.6,0,0,1,.817.006c.348.267.717.506,1.076.758Z" transform="translate(-344.006 -184.29)" fill="#dda601"/>
</svg>
