<svg xmlns="http://www.w3.org/2000/svg" width="24" height="24" viewBox="0 0 24 24">
  <g id="icon-share" transform="translate(-379 -44)">
    <path id="Path_433" data-name="Path 433" d="M318.477,199.678c0-1.458,0-2.944,0-4.429,0-.382.042-.72.436-.9s.652.053.909.29q4.267,3.939,8.531,7.881c.578.535.591.837.047,1.34q-4.3,3.979-8.607,7.944c-.534.491-1.113.4-1.283-.175a1.581,1.581,0,0,1-.03-.437q0-2.01,0-4.019v-.54c-2.774.2-5.514.345-7.46,2.642a17.027,17.027,0,0,0-1.469,2.361c-.276.463-.639.646-.987.4a.827.827,0,0,1-.361-.534,17.8,17.8,0,0,1,.9-6.848,7.106,7.106,0,0,1,5.408-4.364C315.787,200,317.109,199.883,318.477,199.678Zm1.371-3.135c0,1.252,0,2.372,0,3.492,0,.962-.145,1.093-1.094,1.121a14.249,14.249,0,0,0-5.459.979,6.642,6.642,0,0,0-3.577,6.512,7.775,7.775,0,0,1,3.975-2.671,17.941,17.941,0,0,1,5.42-.7c.481,0,.731.283.733.786.006,1.1,0,2.19,0,3.285,0,.137.019.273.036.5l7.191-6.632Z" transform="translate(72.705 -147.238)" fill="#fefefe"/>
    <rect id="Rectangle_98" data-name="Rectangle 98" width="24" height="24" transform="translate(379 44)" fill="none"/>
  </g>
</svg>
