<svg xmlns="http://www.w3.org/2000/svg" width="14" height="14" viewBox="0 0 14 14">
  <g id="student-icon1" transform="translate(-145 -358)">
    <g id="Group_980" data-name="Group 980" transform="translate(-196.054 148.688)">
      <path id="Path_998" data-name="Path 998" d="M347.723,311.77h-5.071c-.467,0-.622-.144-.6-.617a5.609,5.609,0,0,1,2.806-4.7.343.343,0,0,1,.312.025,3.91,3.91,0,0,0,5.088.006.344.344,0,0,1,.311-.033,5.581,5.581,0,0,1,2.81,4.762c.018.408-.147.56-.558.561Q350.274,311.771,347.723,311.77Z" transform="translate(0 -90.125)" fill="#9a9a9a"/>
      <path id="Path_999" data-name="Path 999" d="M390.153,213.342a3.108,3.108,0,0,1-3.075,3.071,3.051,3.051,0,1,1,3.075-3.071Z" transform="translate(-39.383)" fill="#9a9a9a"/>
    </g>
    <rect id="Rectangle_203" data-name="Rectangle 203" width="14" height="14" transform="translate(145 358)" fill="none"/>
  </g>
</svg>
