<svg xmlns="http://www.w3.org/2000/svg" width="20" height="20" viewBox="0 0 20 20">
  <path id="icon-depth" d="M20,.781V12.969a.781.781,0,0,1-1.562,0V4.252a4.932,4.932,0,0,1-.758-.744.264.264,0,0,0-.359,0A3.114,3.114,0,0,1,15,4.844a3.114,3.114,0,0,1-2.321-1.336.264.264,0,0,0-.359,0A3.114,3.114,0,0,1,10,4.844,3.114,3.114,0,0,1,7.679,3.508a.264.264,0,0,0-.359,0A3.114,3.114,0,0,1,5,4.844,3.114,3.114,0,0,1,2.679,3.508a.264.264,0,0,0-.359,0,4.931,4.931,0,0,1-.758.744V16.875a1.564,1.564,0,0,0,1.562,1.563h13.75a1.564,1.564,0,0,0,1.563-1.562.781.781,0,0,1,1.563,0A3.129,3.129,0,0,1,16.875,20H3.125A3.129,3.129,0,0,1,0,16.875V.781a.781.781,0,0,1,1.563,0V2.13A1.825,1.825,0,0,1,2.5,1.875a1.785,1.785,0,0,1,1.378.631A1.8,1.8,0,0,0,5,3.281a1.8,1.8,0,0,0,1.122-.775,1.821,1.821,0,0,1,2.757,0A1.8,1.8,0,0,0,10,3.281a1.8,1.8,0,0,0,1.122-.775,1.821,1.821,0,0,1,2.757,0A1.8,1.8,0,0,0,15,3.281a1.8,1.8,0,0,0,1.122-.775A1.785,1.785,0,0,1,17.5,1.875a1.825,1.825,0,0,1,.938.255V.781A.781.781,0,0,1,20,.781ZM10,6.406a.781.781,0,0,0-.781.781v7.585L7.078,12.614a.781.781,0,1,0-1.109,1.1l2.408,2.428a2.338,2.338,0,0,0,3.324,0l2.408-2.428A.781.781,0,0,0,13,12.614l-2.219,2.237V7.188A.781.781,0,0,0,10,6.406Z" fill="#dda601"/>
</svg>
