<svg xmlns="http://www.w3.org/2000/svg" width="48" height="48" viewBox="0 0 48 48">
  <g id="icon-latest-alerts" transform="translate(-59 -125)">
    <g id="Solid" transform="translate(57.988 123)">
      <path id="Path_1056" data-name="Path 1056" d="M47.844,40.945,28.539,6.954a3.866,3.866,0,0,0-6.721,0L2.513,40.945a3.867,3.867,0,0,0,3.36,5.771H44.484a3.867,3.867,0,0,0,3.36-5.771Zm-1.356,3.067a2.266,2.266,0,0,1-2,1.159H5.873a2.28,2.28,0,0,1-2-1.15,2.253,2.253,0,0,1-.02-2.31L23.162,7.72a2.318,2.318,0,0,1,4.033,0L46.5,41.711a2.273,2.273,0,0,1-.012,2.3Z" transform="translate(0 0)" fill="#dda601"/>
      <path id="Path_1057" data-name="Path 1057" d="M46.068,43.383,26.763,9.392A.739.739,0,0,0,26.088,9a.779.779,0,0,0-.386.1.79.79,0,0,0-.286.3L6.107,43.386a.778.778,0,0,0,.676,1.15H45.394a.729.729,0,0,0,.669-.393.718.718,0,0,0,.005-.759Zm-19.98-1.165A2.318,2.318,0,1,1,28.406,39.9,2.318,2.318,0,0,1,26.088,42.218Zm1.825-7.847a1.833,1.833,0,0,1-1.825,1.667h0a1.833,1.833,0,0,1-1.825-1.667L23.044,19.284a3.055,3.055,0,0,1,3.045-3.331h0a3.055,3.055,0,0,1,3.042,3.331Z" transform="translate(-0.91 -0.91)" fill="#dda601"/>
      <path id="Path_1058" data-name="Path 1058" d="M48.944,23.736a.773.773,0,0,1-.594-.589,6.07,6.07,0,0,0-2.322-3.576.773.773,0,1,1,.918-1.242,7.61,7.61,0,0,1,2.912,4.484.773.773,0,0,1-.588.921.749.749,0,0,1-.326,0Z" transform="translate(-9.937 -2.995)" fill="#dda601"/>
      <path id="Path_1059" data-name="Path 1059" d="M53.244,22.821a.773.773,0,0,1-.607-.681,9.274,9.274,0,0,0-4.646-7.153.773.773,0,0,1,.763-1.343,10.815,10.815,0,0,1,5.419,8.343.773.773,0,0,1-.7.844A.8.8,0,0,1,53.244,22.821Z" transform="translate(-10.375 -1.946)" fill="#dda601"/>
      <path id="Path_1060" data-name="Path 1060" d="M57.44,21.921a.773.773,0,0,1-.61-.732,12.283,12.283,0,0,0-6.96-10.718.773.773,0,0,1,.671-1.391,13.822,13.822,0,0,1,7.833,12.062.773.773,0,0,1-.749.8A.817.817,0,0,1,57.44,21.921Z" transform="translate(-10.793 -0.913)" fill="#dda601"/>
    </g>
    <rect id="Rectangle_267" data-name="Rectangle 267" width="48" height="48" transform="translate(59 125)" fill="none"/>
  </g>
</svg>
