<svg xmlns="http://www.w3.org/2000/svg" width="20" height="20" viewBox="0 0 20 20">
  <g id="icon-levels" transform="translate(-19 -556)">
    <g id="Group_1120" data-name="Group 1120" transform="translate(-312.724 332.685)">
      <path id="Path_1072" data-name="Path 1072" d="M346.736,340.468H333.159c-.968,0-1.45-.36-1.435-1.066.015-.681.485-1.006,1.433-1.005,4.334,0,8.669-.005,13,.011.446,0,.621-.133.565-.592a2.533,2.533,0,0,1,.006-.552.99.99,0,0,1,1.971-.055,2.33,2.33,0,0,1,.02.275c.034.9.034.9.935.909.374,0,.75-.01,1.123.018a1.024,1.024,0,0,1,.014,2.039,8.592,8.592,0,0,1-1.39.009c-.519-.046-.784.095-.686.685a1.682,1.682,0,0,1-.017.5,1.008,1.008,0,0,1-1,.886.989.989,0,0,1-.958-.869C346.705,341.3,346.736,340.926,346.736,340.468Z" transform="translate(0 -99.616)" fill="#dda601"/>
      <path id="Path_1073" data-name="Path 1073" d="M346.764,228.452H333.229c-.143,0-.286,0-.428,0a1.013,1.013,0,0,1-1.033-1.033.982.982,0,0,1,1.031-1.025c1.2-.019,2.392-.012,3.587-.012,3.248,0,6.5-.006,9.745.014.47,0,.718-.1.631-.633a1.678,1.678,0,0,1,0-.332,1,1,0,1,1,2-.021c.013.292,0,.585,0,.978.689,0,1.324-.016,1.957,0a1.015,1.015,0,0,1,1,1.3.977.977,0,0,1-.994.766c-.482.01-.965.023-1.445-.006-.386-.024-.578.088-.522.519a2.622,2.622,0,0,1,0,.5,1,1,0,1,1-1.992.01C346.751,229.163,346.764,228.853,346.764,228.452Z" transform="translate(-0.039)" fill="#dda601"/>
      <path id="Path_1074" data-name="Path 1074" d="M340.653,284.464h-4.974q-1.285,0-2.57,0c-.882,0-1.347-.366-1.341-1.048s.465-1.021,1.365-1.022c2.356,0,4.711-.012,7.067.01.447,0,.581-.134.57-.592-.023-.988.316-1.468.968-1.484s1,.477,1.029,1.493c0,.162.022.324.038.541.246.011.472.03.7.031q3.426,0,6.853,0a4.287,4.287,0,0,1,.535.015,1.03,1.03,0,0,1,.036,2.026,3.6,3.6,0,0,1-.587.028c-2.338,0-4.676.012-7.013-.009-.444,0-.582.127-.571.588.024.987-.316,1.464-.972,1.479-.674.016-1-.461-1.023-1.492,0-.129-.01-.258-.021-.386A.9.9,0,0,0,340.653,284.464Z" transform="translate(-0.04 -49.812)" fill="#dda601"/>
    </g>
    <rect id="Rectangle_272" data-name="Rectangle 272" width="20" height="20" transform="translate(19 556)" fill="none"/>
  </g>
</svg>
