<svg xmlns="http://www.w3.org/2000/svg" width="20" height="20" viewBox="0 0 20 20">
  <g id="icon-magnitude" transform="translate(-19 -616)">
    <g id="earthquake_1_" data-name="earthquake (1)" transform="translate(21 616)">
      <path id="Path_1061" data-name="Path 1061" d="M13.989,2.424A8.141,8.141,0,0,0,8.189,0H8.174A8.154,8.154,0,0,0,0,8.114a8.057,8.057,0,0,0,.362,2.393,7.955,7.955,0,0,0,1.787,3.046L8.174,20,14.2,13.549a7.844,7.844,0,0,0,1.7-2.786,8.057,8.057,0,0,0-1.913-8.339ZM8.174,13.184a5.071,5.071,0,1,1,5.108-5.07A5.1,5.1,0,0,1,8.174,13.184Zm0,0" fill="#dda601"/>
      <path id="Path_1062" data-name="Path 1062" d="M112.956,107.945a3.932,3.932,0,0,0-3.882,3.335h.733l.967-.843,1.028,1.38L113.3,109l1.33,2.225.634-.645.8.7h.772A3.932,3.932,0,0,0,112.956,107.945Zm0,0" transform="translate(-104.782 -103.736)" fill="#dda601"/>
      <path id="Path_1063" data-name="Path 1063" d="M115.328,196.753l-.929.944-1.04-1.74-1.388,2.611-1.381-1.853-.339.3h-1.176a3.927,3.927,0,0,0,7.764,0h-1.212Zm0,0" transform="translate(-104.782 -188.318)" fill="#dda601"/>
    </g>
    <rect id="Rectangle_271" data-name="Rectangle 271" width="20" height="20" transform="translate(19 616)" fill="none"/>
  </g>
</svg>
