<svg xmlns="http://www.w3.org/2000/svg" width="20" height="20" viewBox="0 0 20 20">
  <g id="icon-max-intensity" transform="translate(-310.016 -183.297)">
    <path id="Path_1064" data-name="Path 1064" d="M330.016,193.324q0,3.369,0,6.738a3.1,3.1,0,0,1-3.23,3.234q-6.782,0-13.564,0a3.117,3.117,0,0,1-3.2-3.219q0-6.782,0-13.564a3.124,3.124,0,0,1,3.211-3.214q6.782,0,13.564,0a3.118,3.118,0,0,1,3.222,3.244Q330.018,189.933,330.016,193.324Zm-1.247,4.957c0-.189,0-.335,0-.482q0-5.577,0-11.153a1.909,1.909,0,0,0-2.1-2.1H313.374a1.915,1.915,0,0,0-2.109,2.095q0,5.577,0,11.153v.489Zm-.027,1.292H311.3a1.97,1.97,0,0,0,2.158,2.475q6.6,0,13.2,0a2.721,2.721,0,0,0,.662-.059C328.372,201.721,328.851,200.908,328.742,199.573Z" transform="translate(0 0)" fill="#dda601"/>
    <path id="Path_1065" data-name="Path 1065" d="M345.522,222.547q-3.347,0-6.693,0c-.591,0-.81-.215-.81-.8q0-4.819,0-9.638c0-.585.224-.81.806-.81q6.716,0,13.431,0c.535,0,.76.225.76.758q0,4.864,0,9.728c0,.549-.227.761-.8.762q-3.347,0-6.693,0Zm3.118-5.148.1.022c.151-.2.316-.395.45-.608a1.033,1.033,0,0,1,1.046-.522c.5.037,1,.008,1.5.008v-3.731H339.291V216.3c.38,0,.735-.021,1.087.006a.708.708,0,0,0,.706-.337c.456-.643.921-1.281,1.433-1.879a.892.892,0,0,1,.691-.237c.3.039.438.319.433.641-.006.416,0,.833,0,1.249v1.712a1.507,1.507,0,0,0,.141-.1.557.557,0,0,0,.084-.1,1.568,1.568,0,0,1,1.763-.965c.109.021.289-.122.377-.234.468-.6.917-1.208,1.371-1.815.2-.271.427-.532.811-.407s.464.445.458.822C348.631,215.567,348.641,216.483,348.641,217.4Zm-1.247-1.049a2.1,2.1,0,0,0-.242.272,1.534,1.534,0,0,1-1.73.938c-.112-.019-.291.117-.378.229-.486.62-.953,1.255-1.427,1.884-.2.265-.437.469-.794.336a.686.686,0,0,1-.433-.75c.013-.609,0-1.219,0-1.829v-.99a2.305,2.305,0,0,0-.542.6,1.037,1.037,0,0,1-1.048.519c-.5-.038-1-.008-1.507-.008v3.72h12.45v-3.719c-.4,0-.787.018-1.168-.006a.609.609,0,0,0-.588.3c-.444.615-.908,1.214-1.363,1.821-.2.264-.432.481-.788.359a.7.7,0,0,1-.45-.784C347.4,218.314,347.393,217.392,347.393,216.35Z" transform="translate(-25.5 -25.502)" fill="#dda601"/>
    <path id="Path_1066" data-name="Path 1066" d="M437.392,373.464a5.751,5.751,0,0,1-.666,0,.587.587,0,0,1-.575-.617.578.578,0,0,1,.577-.613,9.826,9.826,0,0,1,1.332,0,.572.572,0,0,1,.572.616.584.584,0,0,1-.575.615A5.951,5.951,0,0,1,437.392,373.464Z" transform="translate(-114.875 -172.045)" fill="#dda601"/>
    <path id="Path_1067" data-name="Path 1067" d="M353.314,373.459c-.207,0-.415.011-.622,0a.622.622,0,0,1-.614-.629.594.594,0,0,1,.59-.606,9.4,9.4,0,0,1,1.332,0,.572.572,0,0,1,.565.623.589.589,0,0,1-.585.608A6.548,6.548,0,0,1,353.314,373.459Z" transform="translate(-38.305 -172.039)" fill="#dda601"/>
    <path id="Path_1068" data-name="Path 1068" d="M395.346,372.314c.193,0,.385-.008.577,0a.619.619,0,0,1,.653.632.6.6,0,0,1-.631.609c-.414.014-.83.016-1.244,0a.62.62,0,1,1,.022-1.239C394.931,372.3,395.138,372.314,395.346,372.314Z" transform="translate(-76.567 -172.14)" fill="#dda601"/>
    <path id="Path_1069" data-name="Path 1069" d="M479.326,373a.632.632,0,0,1-.627.614.623.623,0,1,1,.627-.614Z" transform="translate(-153.061 -172.191)" fill="#dda601"/>
  </g>
</svg>
