<svg xmlns="http://www.w3.org/2000/svg" width="48" height="48" viewBox="0 0 48 48">
  <g id="icon-volcano-alerts" transform="translate(-59 -367)">
    <g id="Group_1253" data-name="Group 1253" transform="translate(2 1)">
      <path id="Path_1047" data-name="Path 1047" d="M350.015,336.844q-5.649,0-11.3,0-2.8,0-5.6-.008a28.537,28.537,0,0,1-3.3-.013c-3.187-.378.057-3.122,1.064-4.291q1.721-2,3.348-4.077,3.225-4.125,6.045-8.546c.542-.851,2.778-1.394,3.563-.81a1.467,1.467,0,0,1,.426,1c.056.926-.013,1.859.021,2.787a2.435,2.435,0,1,0,4.863,0,4.3,4.3,0,0,1,.036-1.153,5.665,5.665,0,0,1,.73-1.136c.3.335.765.625.869,1.013.553,2.071,2.589,2.95,4.008,1.554a5.051,5.051,0,0,0,.856-2.27c.173-.66-.288-1.553.681-1.9a3.125,3.125,0,0,1,3.29.837q2.879,4.518,6.193,8.739,1.652,2.106,3.4,4.135c.637.738,4.352,4.112,1.372,4.123C363.724,336.852,356.87,336.844,350.015,336.844Z" transform="translate(-269.446 75.715)" fill="#dda601"/>
      <path id="Path_1048" data-name="Path 1048" d="M384.9,215.283c.1,1.052-.572,1.355-1.725,1.291-1.507-.083-3.022-.053-4.532-.006-1.15.036-2.21.057-1.94-1.621a4.8,4.8,0,0,1-3.911-1.429c-.179-.187-.562-.187-.855-.254a4.1,4.1,0,0,1-3.328-3.572,4.058,4.058,0,0,1,2.551-4.265,2.04,2.04,0,0,0,.906-.9A4.174,4.174,0,0,1,376.777,202a1.3,1.3,0,0,0,.949-.336,4.088,4.088,0,0,1,6.09-.036,1.424,1.424,0,0,0,1.044.34,4.291,4.291,0,0,1,4.58,2.437,2.758,2.758,0,0,0,1.142,1.12,4.091,4.091,0,0,1-.718,7.685,18.514,18.514,0,0,0-1.7.821C387.151,214.447,386.119,214.818,384.9,215.283Zm-7.37-9.507a14.7,14.7,0,0,0-2.066,1.2c-.217.175-.125.735-.174,1.119.376.04.895.256,1.1.087a1.573,1.573,0,0,1,2.283.022c.2.163.9.1.979-.057.153-.3.184-.941-.011-1.1A16.088,16.088,0,0,0,377.528,205.776Zm6.508,3.261a15.909,15.909,0,0,0-2.111,1.24c-.2.159-.183.789-.038,1.1.075.158.777.239.977.08a1.583,1.583,0,0,1,2.285-.026c.212.174.732-.027,1.11-.056-.04-.387.064-.953-.15-1.127A14.67,14.67,0,0,0,384.036,209.037Z" transform="translate(-300.253 166.716)" fill="#dda601"/>
      <path id="Path_1049" data-name="Path 1049" d="M386.951,285.36c1.344-2.6,2.6-5.079,3.919-7.52a1.38,1.38,0,0,1,1.025-.542q2.959-.077,5.921,0a1.4,1.4,0,0,1,1.043.511c1.344,2.468,2.62,4.973,3.918,7.473-3.363.545-3.348.547-3.875,4.07-.05.333-.453.613-.692.917-.315-.363-.808-.68-.915-1.1-.526-2.047-2.622-2.863-4.044-1.437a4.592,4.592,0,0,0-.8,1.845,3.857,3.857,0,0,0-.025,1.04c-.014.593,0,1.279-.826,1.258-.8-.02-.793-.7-.8-1.294,0-.735,0-1.471,0-2.206-.025-2.093-.877-2.943-2.969-2.975C387.568,285.4,387.3,285.377,386.951,285.36Z" transform="translate(-314.354 107.63)" fill="#dda601"/>
    </g>
    <rect id="Rectangle_269" data-name="Rectangle 269" width="48" height="48" transform="translate(59 367)" fill="none"/>
  </g>
</svg>
