<svg xmlns="http://www.w3.org/2000/svg" width="32" height="32" viewBox="0 0 32 32">
  <g id="icon-jap-manner" transform="translate(-32 -159)">
    <g id="Ellipse_25" data-name="Ellipse 25" transform="translate(32 159)" fill="none" stroke="#dda601" stroke-width="1">
      <circle cx="16" cy="16" r="16" stroke="none"/>
      <circle cx="16" cy="16" r="15.5" fill="none"/>
    </g>
    <g id="_05-manner" data-name="05-manner" transform="translate(37.899 150)">
      <g id="Glyph" transform="translate(0.1 16)">
        <circle id="Ellipse_24" data-name="Ellipse 24" cx="3.289" cy="3.289" r="3.289" transform="translate(6.568 0)" fill="#dda601"/>
        <path id="Path_1010" data-name="Path 1010" d="M48,155.289a.822.822,0,0,0,.822.822h8.223a.822.822,0,0,0,.822-.822V152H48Z" transform="translate(-43.077 -138.021)" fill="#dda601"/>
        <path id="Path_1011" data-name="Path 1011" d="M19.481,69.585l-3.674-4.848A1.634,1.634,0,0,0,14.435,64h-.711A4.11,4.11,0,0,1,6.19,64H5.479a1.634,1.634,0,0,0-1.371.737L.434,69.585a1.645,1.645,0,0,0,1.311,2.638H18.17a1.645,1.645,0,0,0,1.311-2.638Zm-2.945.993H11.6a.411.411,0,0,1-.342-.183l-1.3-1.954L8.655,70.4a.411.411,0,0,1-.342.183H3.379v-.822H8.093l1.523-2.284a.411.411,0,0,1,.684,0l1.523,2.284h4.714Z" transform="translate(-0.1 -59.066)" fill="#dda601"/>
      </g>
    </g>
  </g>
</svg>
