<svg xmlns="http://www.w3.org/2000/svg" width="32" height="32" viewBox="0 0 32 32">
  <g id="icon-partner" transform="translate(-28 -212)">
    <g id="Ellipse_26" data-name="Ellipse 26" transform="translate(28 212)" fill="none" stroke="#dda601" stroke-width="1">
      <circle cx="16" cy="16" r="16" stroke="none"/>
      <circle cx="16" cy="16" r="15.5" fill="none"/>
    </g>
    <path id="settings_3_" data-name="settings (3)" d="M17.957,7.437l-1.488-.189a7.481,7.481,0,0,0-.45-1.088l.919-1.184a1.177,1.177,0,0,0-.1-1.567L15.594,2.163a1.18,1.18,0,0,0-1.571-.1l-1.182.919a7.454,7.454,0,0,0-1.089-.45l-.189-1.486A1.186,1.186,0,0,0,10.387,0H8.613A1.186,1.186,0,0,0,7.437,1.043L7.248,2.531a7.368,7.368,0,0,0-1.089.45L4.976,2.062a1.178,1.178,0,0,0-1.567.1L2.163,3.4a1.18,1.18,0,0,0-.1,1.572L2.981,6.16a7.394,7.394,0,0,0-.45,1.088l-1.486.189A1.186,1.186,0,0,0,0,8.613v1.773a1.186,1.186,0,0,0,1.043,1.176l1.488.189a7.481,7.481,0,0,0,.45,1.088l-.919,1.184a1.177,1.177,0,0,0,.1,1.567l1.247,1.247a1.181,1.181,0,0,0,1.571.1l1.183-.919a7.309,7.309,0,0,0,1.088.45l.189,1.485A1.186,1.186,0,0,0,8.613,19h1.773a1.186,1.186,0,0,0,1.176-1.043l.189-1.488a7.482,7.482,0,0,0,1.088-.45l1.184.919a1.177,1.177,0,0,0,1.567-.1l1.247-1.247a1.179,1.179,0,0,0,.1-1.571l-.919-1.183a7.309,7.309,0,0,0,.45-1.088l1.485-.189A1.186,1.186,0,0,0,19,10.387V8.613a1.184,1.184,0,0,0-1.042-1.176ZM9.5,13.458A3.958,3.958,0,1,1,13.458,9.5,3.963,3.963,0,0,1,9.5,13.458Z" transform="translate(35 219)" fill="#dda601"/>
  </g>
</svg>
