<svg xmlns="http://www.w3.org/2000/svg" width="32" height="32" viewBox="0 0 32 32">
  <g id="icon-contact" transform="translate(-28 -374)">
    <g id="Ellipse_29" data-name="Ellipse 29" transform="translate(28 374)" fill="none" stroke="#dda601" stroke-width="1">
      <circle cx="16" cy="16" r="16" stroke="none"/>
      <circle cx="16" cy="16" r="15.5" fill="none"/>
    </g>
    <g id="phone-call_1_" data-name="phone-call (1)" transform="translate(35.461 382)">
      <g id="Group_1053" data-name="Group 1053" transform="translate(0.539 0)">
        <path id="Path_1014" data-name="Path 1014" d="M16.444,12.012,14.16,9.728a1.519,1.519,0,0,0-2.529.571,1.554,1.554,0,0,1-1.795.979A7.044,7.044,0,0,1,5.594,7.036a1.478,1.478,0,0,1,.979-1.795,1.519,1.519,0,0,0,.571-2.529L4.86.428a1.629,1.629,0,0,0-2.2,0l-1.55,1.55c-1.55,1.632.163,5.955,4,9.789s8.158,5.629,9.789,4l1.55-1.55A1.629,1.629,0,0,0,16.444,12.012Z" transform="translate(-0.539 0)" fill="#dda601"/>
      </g>
    </g>
  </g>
</svg>
