<svg xmlns="http://www.w3.org/2000/svg" width="39.786" height="28" viewBox="0 0 39.786 28">
  <g id="icon-youtube" transform="translate(0 -45.917)">
    <path id="XMLID_823_" d="M38.235,48.321c-1.436-1.707-4.088-2.4-9.152-2.4H10.7c-5.18,0-7.876.741-9.307,2.559C0,50.248,0,52.859,0,56.473v6.888c0,7,1.655,10.556,10.7,10.556H29.084c4.391,0,6.825-.615,8.4-2.121,1.614-1.545,2.3-4.068,2.3-8.435V56.473C39.786,52.662,39.678,50.035,38.235,48.321ZM25.543,60.868,17.2,65.23a1.283,1.283,0,0,1-1.878-1.137V55.4a1.283,1.283,0,0,1,1.875-1.139l8.347,4.334a1.283,1.283,0,0,1,0,2.277Z" transform="translate(0 0)" fill="#fff"/>
  </g>
</svg>
