<svg xmlns="http://www.w3.org/2000/svg" width="85" height="85" viewBox="0 0 85 85">
  <g id="server-error" transform="translate(-0.001 -0.48)">
    <path id="Path_1541" data-name="Path 1541" d="M67.781,23.057a19.837,19.837,0,0,0-37.9-10.506,12.813,12.813,0,0,0-14.9.352,12.667,12.667,0,0,0-4.405,14.17,16.9,16.9,0,0,0,.237,31.442,1.411,1.411,0,1,0,1.029-2.628,14.091,14.091,0,0,1,1.022-26.637,1.408,1.408,0,0,0,.858-1.964,9.684,9.684,0,0,1-.983-4.268,9.931,9.931,0,0,1,16.814-7.1,1.419,1.419,0,0,0,2.337-.613A17,17,0,0,1,64.7,24.116a1.411,1.411,0,0,0,1.493,1.73c.131-.009.247-.009.381-.009A15.5,15.5,0,0,1,73.022,55.47a1.411,1.411,0,1,0,1.173,2.567,18.312,18.312,0,0,0-6.413-34.98Zm0,0" transform="translate(0 0)" fill="#dda601"/>
    <path id="Path_1542" data-name="Path 1542" d="M139.994,176.355H89.325a1.42,1.42,0,0,0-1.407,1.433v14.327a1.42,1.42,0,0,0,1.407,1.433h50.669a1.42,1.42,0,0,0,1.407-1.433V177.788A1.42,1.42,0,0,0,139.994,176.355Zm-1.407,14.327H90.733V179.22h47.854Zm0,0" transform="translate(-72.172 -144.808)" fill="#dda601"/>
    <path id="Path_1543" data-name="Path 1543" d="M343.918,200.355h2.865v2.865h-2.865Zm0,0" transform="translate(-283.037 -164.485)" fill="#dda601"/>
    <path id="Path_1544" data-name="Path 1544" d="M311.918,200.355h2.865v2.865h-2.865Zm0,0" transform="translate(-256.702 -164.485)" fill="#dda601"/>
    <path id="Path_1545" data-name="Path 1545" d="M279.918,200.355h2.865v2.865h-2.865Zm0,0" transform="translate(-230.366 -164.485)" fill="#dda601"/>
    <path id="Path_1546" data-name="Path 1546" d="M247.918,200.355h2.865v2.865h-2.865Zm0,0" transform="translate(-204.031 -164.485)" fill="#dda601"/>
    <path id="Path_1547" data-name="Path 1547" d="M215.918,200.355h2.865v2.865h-2.865Zm0,0" transform="translate(-177.695 -164.485)" fill="#dda601"/>
    <path id="Path_1548" data-name="Path 1548" d="M343.918,232.355h2.865v2.865h-2.865Zm0,0" transform="translate(-283.037 -190.819)" fill="#dda601"/>
    <path id="Path_1549" data-name="Path 1549" d="M311.918,232.355h2.865v2.865h-2.865Zm0,0" transform="translate(-256.702 -190.819)" fill="#dda601"/>
    <path id="Path_1550" data-name="Path 1550" d="M279.918,232.355h2.865v2.865h-2.865Zm0,0" transform="translate(-230.366 -190.819)" fill="#dda601"/>
    <path id="Path_1551" data-name="Path 1551" d="M247.918,232.355h2.865v2.865h-2.865Zm0,0" transform="translate(-204.031 -190.819)" fill="#dda601"/>
    <path id="Path_1552" data-name="Path 1552" d="M215.918,232.355h2.865v2.865h-2.865Zm0,0" transform="translate(-177.695 -190.819)" fill="#dda601"/>
    <path id="Path_1553" data-name="Path 1553" d="M183.918,200.355h2.865v2.865h-2.865Zm0,0" transform="translate(-151.36 -164.485)" fill="#dda601"/>
    <path id="Path_1554" data-name="Path 1554" d="M183.918,232.355h2.865v2.865h-2.865Zm0,0" transform="translate(-151.36 -190.819)" fill="#dda601"/>
    <path id="Path_1555" data-name="Path 1555" d="M124.216,208.951a4.3,4.3,0,1,0-4.3-4.3A4.3,4.3,0,0,0,124.216,208.951Zm0-5.731a1.433,1.433,0,1,1-1.433,1.433A1.433,1.433,0,0,1,124.216,203.22Zm0,0" transform="translate(-98.708 -164.515)" fill="#dda601"/>
    <path id="Path_1556" data-name="Path 1556" d="M139.994,280.355H89.325a1.42,1.42,0,0,0-1.407,1.433v14.327a1.42,1.42,0,0,0,1.407,1.433h50.669a1.42,1.42,0,0,0,1.407-1.433V281.788A1.42,1.42,0,0,0,139.994,280.355Zm-1.407,14.327H90.733V283.22h47.854Zm0,0" transform="translate(-72.172 -230.438)" fill="#dda601"/>
    <path id="Path_1557" data-name="Path 1557" d="M343.918,304.355h2.865v2.865h-2.865Zm0,0" transform="translate(-283.037 -250.07)" fill="#dda601"/>
    <path id="Path_1558" data-name="Path 1558" d="M311.918,304.355h2.865v2.865h-2.865Zm0,0" transform="translate(-256.702 -250.07)" fill="#dda601"/>
    <path id="Path_1559" data-name="Path 1559" d="M279.918,304.355h2.865v2.865h-2.865Zm0,0" transform="translate(-230.366 -250.07)" fill="#dda601"/>
    <path id="Path_1560" data-name="Path 1560" d="M247.918,304.355h2.865v2.865h-2.865Zm0,0" transform="translate(-204.031 -250.07)" fill="#dda601"/>
    <path id="Path_1561" data-name="Path 1561" d="M215.918,304.355h2.865v2.865h-2.865Zm0,0" transform="translate(-177.695 -250.07)" fill="#dda601"/>
    <path id="Path_1562" data-name="Path 1562" d="M343.918,336.355h2.865v2.865h-2.865Zm0,0" transform="translate(-283.037 -276.404)" fill="#dda601"/>
    <path id="Path_1563" data-name="Path 1563" d="M311.918,336.355h2.865v2.865h-2.865Zm0,0" transform="translate(-256.702 -276.404)" fill="#dda601"/>
    <path id="Path_1564" data-name="Path 1564" d="M279.918,336.355h2.865v2.865h-2.865Zm0,0" transform="translate(-230.366 -276.404)" fill="#dda601"/>
    <path id="Path_1565" data-name="Path 1565" d="M247.918,336.355h2.865v2.865h-2.865Zm0,0" transform="translate(-204.031 -276.404)" fill="#dda601"/>
    <path id="Path_1566" data-name="Path 1566" d="M215.918,336.355h2.865v2.865h-2.865Zm0,0" transform="translate(-177.695 -276.404)" fill="#dda601"/>
    <path id="Path_1567" data-name="Path 1567" d="M183.918,304.355h2.865v2.865h-2.865Zm0,0" transform="translate(-151.36 -250.07)" fill="#dda601"/>
    <path id="Path_1568" data-name="Path 1568" d="M183.918,336.355h2.865v2.865h-2.865Zm0,0" transform="translate(-151.36 -276.404)" fill="#dda601"/>
    <path id="Path_1569" data-name="Path 1569" d="M124.216,312.951a4.3,4.3,0,1,0-4.3-4.3A4.3,4.3,0,0,0,124.216,312.951Zm0-5.731a1.433,1.433,0,1,1-1.433,1.433A1.433,1.433,0,0,1,124.216,307.22Zm0,0" transform="translate(-98.708 -250.116)" fill="#dda601"/>
    <path id="Path_1570" data-name="Path 1570" d="M139.994,384.355H89.325a1.42,1.42,0,0,0-1.407,1.433v14.327a1.42,1.42,0,0,0,1.407,1.433h50.669a1.42,1.42,0,0,0,1.407-1.433V385.788A1.42,1.42,0,0,0,139.994,384.355Zm-1.407,14.327H90.733V387.22h47.854Zm0,0" transform="translate(-72.172 -316.067)" fill="#dda601"/>
    <path id="Path_1571" data-name="Path 1571" d="M343.918,408.355h2.865v2.865h-2.865Zm0,0" transform="translate(-283.037 -335.769)" fill="#dda601"/>
    <path id="Path_1572" data-name="Path 1572" d="M311.918,408.355h2.865v2.865h-2.865Zm0,0" transform="translate(-256.702 -335.769)" fill="#dda601"/>
    <path id="Path_1573" data-name="Path 1573" d="M279.918,408.355h2.865v2.865h-2.865Zm0,0" transform="translate(-230.366 -335.769)" fill="#dda601"/>
    <path id="Path_1574" data-name="Path 1574" d="M247.918,408.355h2.865v2.865h-2.865Zm0,0" transform="translate(-204.031 -335.769)" fill="#dda601"/>
    <path id="Path_1575" data-name="Path 1575" d="M215.918,408.355h2.865v2.865h-2.865Zm0,0" transform="translate(-177.695 -335.769)" fill="#dda601"/>
    <path id="Path_1576" data-name="Path 1576" d="M343.918,440.355h2.865v2.865h-2.865Zm0,0" transform="translate(-283.037 -362.039)" fill="#dda601"/>
    <path id="Path_1577" data-name="Path 1577" d="M311.918,440.355h2.865v2.865h-2.865Zm0,0" transform="translate(-256.702 -362.039)" fill="#dda601"/>
    <path id="Path_1578" data-name="Path 1578" d="M279.918,440.355h2.865v2.865h-2.865Zm0,0" transform="translate(-230.366 -362.039)" fill="#dda601"/>
    <path id="Path_1579" data-name="Path 1579" d="M247.918,440.355h2.865v2.865h-2.865Zm0,0" transform="translate(-204.031 -362.039)" fill="#dda601"/>
    <path id="Path_1580" data-name="Path 1580" d="M215.918,440.355h2.865v2.865h-2.865Zm0,0" transform="translate(-177.695 -362.039)" fill="#dda601"/>
    <path id="Path_1581" data-name="Path 1581" d="M183.918,408.355h2.865v2.865h-2.865Zm0,0" transform="translate(-151.36 -335.769)" fill="#dda601"/>
    <path id="Path_1582" data-name="Path 1582" d="M183.918,440.355h2.865v2.865h-2.865Zm0,0" transform="translate(-151.36 -362.039)" fill="#dda601"/>
    <path id="Path_1583" data-name="Path 1583" d="M124.216,416.951a4.3,4.3,0,1,0-4.3-4.3A4.3,4.3,0,0,0,124.216,416.951Zm0-5.731a1.433,1.433,0,1,1-1.433,1.433A1.433,1.433,0,0,1,124.216,411.22Zm0,0" transform="translate(-98.708 -335.769)" fill="#dda601"/>
  </g>
</svg>
