<svg xmlns="http://www.w3.org/2000/svg" width="18" height="22.109" viewBox="0 0 18 22.109">
  <g id="pdf-file" transform="translate(-44.806)">
    <path id="Path_1416" data-name="Path 1416" d="M119.61,298c0-.367-.255-.586-.7-.586a1.559,1.559,0,0,0-.373.035v1.178a1.413,1.413,0,0,0,.3.023C119.314,298.649,119.61,298.407,119.61,298Z" transform="translate(-70.346 -283.774)" fill="#dda601"/>
    <path id="Path_1417" data-name="Path 1417" d="M194.212,297.681a1.859,1.859,0,0,0-.408.035v2.609a1.63,1.63,0,0,0,.314.018,1.236,1.236,0,0,0,1.349-1.4A1.144,1.144,0,0,0,194.212,297.681Z" transform="translate(-142.165 -284.03)" fill="#dda601"/>
    <path id="Path_1418" data-name="Path 1418" d="M57.217,0h-8.88a2.357,2.357,0,0,0-2.353,2.353v8.7h-.23a.948.948,0,0,0-.948.948v5.751a.948.948,0,0,0,.948.948h.23v1.054a2.356,2.356,0,0,0,2.353,2.353H60.453a2.356,2.356,0,0,0,2.352-2.353V5.569ZM47.294,13.041a7.433,7.433,0,0,1,1.219-.082,1.912,1.912,0,0,1,1.219.319,1.166,1.166,0,0,1,.426.923,1.275,1.275,0,0,1-.367.947,1.85,1.85,0,0,1-1.3.42,2.336,2.336,0,0,1-.308-.017v1.426h-.893Zm13.16,7.627H48.337a.913.913,0,0,1-.911-.912V18.7H58.721a.948.948,0,0,0,.948-.948V12a.948.948,0,0,0-.948-.948H47.426v-8.7a.913.913,0,0,1,.911-.911l8.341-.009V4.517A1.632,1.632,0,0,0,58.31,6.149l3.02-.009.034,13.616A.912.912,0,0,1,60.453,20.668Zm-9.72-3.71V13.041a8.122,8.122,0,0,1,1.219-.082,2.568,2.568,0,0,1,1.633.426,1.765,1.765,0,0,1,.674,1.5A2.021,2.021,0,0,1,53.6,16.5a2.863,2.863,0,0,1-1.84.515A7.807,7.807,0,0,1,50.733,16.958Zm6.458-2.319v.734H55.759v1.6h-.905V12.988h2.438v.739H55.759v.911Z" fill="#dda601"/>
  </g>
</svg>
