<svg xmlns="http://www.w3.org/2000/svg" width="12.5" height="13.592" viewBox="0 0 12.5 13.592">
  <g id="arrow-LeftRight" transform="translate(-253.5 -587.955)">
    <path id="XMLID_28_" d="M11.931,77.841H1.939L3.81,75.97a.568.568,0,1,0-.8-.8L.166,78.008a.568.568,0,0,0,0,.8l2.841,2.841a.568.568,0,1,0,.8-.8L1.939,78.978h9.992a.568.568,0,1,0,0-1.136Z" transform="translate(253.5 519.729)" fill="#dda601"/>
    <path id="XMLID_28_2" data-name="XMLID_28_" d="M.568,77.841H10.56L8.689,75.97a.568.568,0,0,1,.8-.8l2.841,2.841a.568.568,0,0,1,0,.8L9.492,81.652a.568.568,0,0,1-.8-.8l1.871-1.871H.568a.568.568,0,1,1,0-1.136Z" transform="translate(253.5 512.954)" fill="#dda601"/>
  </g>
</svg>
