<svg id="flag-nepal" xmlns="http://www.w3.org/2000/svg" width="12" height="12" viewBox="0 0 12 12">
  <rect id="Rectangle_249" data-name="Rectangle 249" width="12" height="12" fill="#f5f5f5"/>
  <path id="Path_1116" data-name="Path 1116" d="M.409.8,6.92,5.563H1.9l.611.681,4.743,5.29H.409V.8M0,0V11.943H8.171L2.818,5.971H8.171Z" fill="#41479b"/>
  <path id="Path_1117" data-name="Path 1117" d="M17.516,34.495l6.511,4.758H19.01l.611.681,4.743,5.29H17.516V34.495" transform="translate(-17.107 -33.69)" fill="#ff4b55"/>
  <g id="Group_1175" data-name="Group 1175" transform="translate(0.64 3.457)">
    <path id="Path_1118" data-name="Path 1118" d="M35.584,316.941l.252.519.477-.324a.03.03,0,0,1,.047.027l-.042.575.575-.042a.03.03,0,0,1,.027.048l-.324.477.519.252a.03.03,0,0,1,0,.055l-.519.252.324.477a.03.03,0,0,1-.027.047l-.575-.042.042.575a.03.03,0,0,1-.047.027l-.477-.324-.252.519a.03.03,0,0,1-.055,0l-.252-.519-.477.324a.03.03,0,0,1-.047-.027l.042-.575-.575.042a.03.03,0,0,1-.027-.047l.324-.477L34,318.529a.03.03,0,0,1,0-.055l.519-.252-.324-.477a.03.03,0,0,1,.027-.048l.575.042-.042-.575a.03.03,0,0,1,.047-.027l.477.324.252-.519A.03.03,0,0,1,35.584,316.941Z" transform="translate(-33.826 -312.988)" fill="#f5f5f5"/>
    <path id="Path_1119" data-name="Path 1119" d="M29.865,149.16l-.218-.149.192-.2-.274-.05.094-.262-.271.066-.021-.278-.22.17-.132-.245-.132.245-.22-.17-.021.278-.271-.066.094.262-.274.05.192.2-.218.149a2.023,2.023,0,0,1-.709-.549,1.582,1.582,0,0,0,3.119,0A2.022,2.022,0,0,1,29.865,149.16Z" transform="translate(-27.454 -148.21)" fill="#f5f5f5"/>
  </g>
</svg>
