<svg xmlns="http://www.w3.org/2000/svg" width="37" height="30.862" viewBox="0 0 37 30.862">
  <g id="icon-giftBox" transform="translate(0)">
    <path id="Path_1536" data-name="Path 1536" d="M212.112,364.138h-6.3a5.8,5.8,0,0,0-5.02-4.033v-.074h-2.057v.074a6.379,6.379,0,0,0-4.115,2.232,6.56,6.56,0,0,0-4.667-2.306c-.158-.009-.317-.011-.476-.008-.117,0-.232,0-.348.008a5.945,5.945,0,0,0-5.7,4.107h-6.3a1.029,1.029,0,0,0-1,.771V371.6a1.03,1.03,0,0,0,1,.771h1.029v17.488a1.029,1.029,0,0,0,1.029,1.029h30.86a1.029,1.029,0,0,0,1.029-1.029V372.367h1.029a1.029,1.029,0,0,0,1.029-1.029v-6.172A1.029,1.029,0,0,0,212.112,364.138Zm-12.344-2.058a4.2,4.2,0,0,1,3.858,2.058H195.91A4.2,4.2,0,0,1,199.767,362.08Zm-10.287,0a4.2,4.2,0,0,1,3.858,2.058h-7.715A4.2,4.2,0,0,1,189.48,362.08Zm1.029,26.746H180.223V372.367h10.286Zm6.172,0h-4.114V372.367h4.114Zm12.344,0H198.739V372.367h10.286Zm2.058-18.516H178.165V366.2h32.918Z" transform="translate(-176.14 -360.022)" fill="#fff"/>
    <path id="Path_1537" data-name="Path 1537" d="M305.184,360.031h-.824c.115-.005.231-.008.348-.008C304.867,360.02,305.026,360.022,305.184,360.031Z" transform="translate(-291.367 -360.022)" fill="#fff"/>
  </g>
</svg>
