<svg xmlns="http://www.w3.org/2000/svg" width="35" height="35" viewBox="0 0 35 35">
  <g id="icon-promoCode" transform="translate(-294 -87)">
    <g id="coupon_1_" data-name="coupon (1)" transform="translate(295 -9)">
      <g id="Group_1427" data-name="Group 1427" transform="translate(9.26 115.317)">
        <g id="Group_1426" data-name="Group 1426" transform="translate(0 0)">
          <rect id="Rectangle_344" data-name="Rectangle 344" width="2.058"/>
        </g>
      </g>
      <g id="Group_1429" data-name="Group 1429" transform="translate(9.26 116.346)">
        <g id="Group_1428" data-name="Group 1428" transform="translate(0 0)">
          <rect id="Rectangle_345" data-name="Rectangle 345" width="2.058" height="1.029"/>
        </g>
      </g>
      <g id="Group_1431" data-name="Group 1431" transform="translate(9.26 119.432)">
        <g id="Group_1430" data-name="Group 1430" transform="translate(0 0)">
          <rect id="Rectangle_346" data-name="Rectangle 346" width="2.058" height="1.029" transform="translate(0 0)"/>
        </g>
      </g>
      <g id="Group_1433" data-name="Group 1433" transform="translate(9.26 112.231)">
        <g id="Group_1432" data-name="Group 1432" transform="translate(0 0)">
          <rect id="Rectangle_347" data-name="Rectangle 347" width="2.058" height="1.029"/>
        </g>
      </g>
      <g id="Group_1435" data-name="Group 1435" transform="translate(9.26 110.173)">
        <g id="Group_1434" data-name="Group 1434" transform="translate(0 0)">
          <rect id="Rectangle_348" data-name="Rectangle 348" width="2.058" height="1.029"/>
        </g>
      </g>
      <g id="Group_1437" data-name="Group 1437" transform="translate(9.26 108.115)">
        <g id="Group_1436" data-name="Group 1436" transform="translate(0 0)">
          <rect id="Rectangle_349" data-name="Rectangle 349" width="2.058" height="1.029"/>
        </g>
      </g>
      <g id="Group_1439" data-name="Group 1439" transform="translate(9.26 106.058)">
        <g id="Group_1438" data-name="Group 1438" transform="translate(0 0)">
          <rect id="Rectangle_350" data-name="Rectangle 350" width="2.058" height="1.029" transform="translate(0 0)"/>
        </g>
      </g>
      <g id="Group_1441" data-name="Group 1441" transform="translate(2.058 106.058)">
        <g id="Group_1440" data-name="Group 1440" transform="translate(0 0)">
          <rect id="Rectangle_351" data-name="Rectangle 351" width="1.029" height="1.029" transform="translate(0 0)"/>
        </g>
      </g>
      <g id="Group_1443" data-name="Group 1443" transform="translate(28.808 106.058)">
        <g id="Group_1442" data-name="Group 1442" transform="translate(0 0)">
          <rect id="Rectangle_352" data-name="Rectangle 352" width="1.029" height="1.029" transform="translate(0 0)"/>
        </g>
      </g>
      <g id="Group_1445" data-name="Group 1445" transform="translate(28.808 119.432)">
        <g id="Group_1444" data-name="Group 1444" transform="translate(0 0)">
          <rect id="Rectangle_353" data-name="Rectangle 353" width="1.029" height="1.029" transform="translate(0 0)"/>
        </g>
      </g>
      <g id="Group_1447" data-name="Group 1447" transform="translate(2.058 119.432)">
        <g id="Group_1446" data-name="Group 1446" transform="translate(0 0)">
          <rect id="Rectangle_354" data-name="Rectangle 354" width="1.029" height="1.029" transform="translate(0 0)"/>
        </g>
      </g>
      <g id="Group_1449" data-name="Group 1449" transform="translate(0 104)">
        <g id="Group_1448" data-name="Group 1448" transform="translate(0 0)">
          <path id="Path_1532" data-name="Path 1532" d="M31.467,110.4a.533.533,0,0,0,.533-.533v-5.333a.533.533,0,0,0-.533-.533H.533a.533.533,0,0,0-.533.533v5.333a.533.533,0,0,0,.533.533,2.667,2.667,0,0,1,0,5.333.533.533,0,0,0-.533.533V121.6a.533.533,0,0,0,.533.533H31.467A.533.533,0,0,0,32,121.6v-5.333a.533.533,0,0,0-.533-.533,2.667,2.667,0,0,1,0-5.333Zm-3.7,3.2a3.733,3.733,0,0,0,3.165,3.165v4.3H1.067v-4.3a3.733,3.733,0,0,0,0-7.391v-4.3H30.933v4.3A3.733,3.733,0,0,0,27.768,113.6Z" transform="translate(0 -104)"/>
        </g>
      </g>
      <g id="Group_1451" data-name="Group 1451" transform="translate(13.867 107.733)">
        <g id="Group_1450" data-name="Group 1450" transform="translate(0 0)">
          <path id="Path_1533" data-name="Path 1533" d="M210.133,160a2.133,2.133,0,1,0,2.133,2.133A2.133,2.133,0,0,0,210.133,160Zm0,3.2a1.067,1.067,0,1,1,1.067-1.067A1.067,1.067,0,0,1,210.133,163.2Z" transform="translate(-208 -160)"/>
        </g>
      </g>
      <g id="Group_1453" data-name="Group 1453" transform="translate(20.267 114.133)">
        <g id="Group_1452" data-name="Group 1452">
          <path id="Path_1534" data-name="Path 1534" d="M306.133,256a2.133,2.133,0,1,0,2.133,2.133A2.133,2.133,0,0,0,306.133,256Zm0,3.2a1.067,1.067,0,1,1,1.067-1.067A1.067,1.067,0,0,1,306.133,259.2Z" transform="translate(-304 -256)"/>
        </g>
      </g>
      <g id="Group_1455" data-name="Group 1455" transform="translate(14.556 108.422)">
        <g id="Group_1454" data-name="Group 1454" transform="translate(0 0)">
          <rect id="Rectangle_355" data-name="Rectangle 355" width="12.068" height="1.067" transform="translate(0 8.533) rotate(-45)"/>
        </g>
      </g>
    </g>
    <rect id="Rectangle_363" data-name="Rectangle 363" width="35" height="35" transform="translate(294 87)" fill="none"/>
  </g>
</svg>
