<svg xmlns="http://www.w3.org/2000/svg" width="35" height="35" viewBox="0 0 35 35">
  <g id="icon-redeem" transform="translate(-83 -87)">
    <g id="Group_1425" data-name="Group 1425" transform="translate(-94.749 -208.994)">
      <path id="Path_1522" data-name="Path 1522" d="M182.915,424.253c-.445,0-.8.023-1.145,0a1,1,0,0,1-.893-1.5c.622-1.3,1.283-2.584,1.922-3.876a1.23,1.23,0,0,1,1.27-.643c2.4.006,4.8,0,7.205,0,5.155,0,10.31.008,15.465-.008a1.426,1.426,0,0,1,1.467.909c.532,1.149,1.124,2.27,1.686,3.406.512,1.035.084,1.712-1.083,1.722-.253,0-.506,0-.856,0v.643q0,3.749,0,7.5c0,1.286-.562,1.846-1.855,1.846H184.776c-1.294,0-1.858-.55-1.861-1.843-.006-2.48,0-4.96,0-7.44C182.915,424.751,182.915,424.54,182.915,424.253Zm1.025,0c0,2.766,0,5.437,0,8.109,0,.785.083.872.87.873q4.772,0,9.544,0c.185,0,.37-.028.551-.043V421.13a18.85,18.85,0,0,0-1.25,2.314,1.3,1.3,0,0,1-1.342.819c-2.01-.015-4.021-.006-6.031-.006Zm12.014,8.925a1.989,1.989,0,0,0,.309.053q5.006,0,10.013.005c.512,0,.663-.262.66-.741-.013-2.44-.006-4.879-.006-7.319v-.92h-.689c-2.459,0-4.919-.037-7.377.014a1.652,1.652,0,0,1-1.8-1.131c-.283-.7-.669-1.367-1.009-2.048l-.1.044Zm-14.168-10.019a.922.922,0,0,0,.205.063c3.437,0,6.874.009,10.311-.011a.724.724,0,0,0,.5-.358c.475-.894.912-1.808,1.363-2.715l.45-.9c-3.593,0-7.068,0-10.543.009a.551.551,0,0,0-.422.2C183.018,420.671,182.41,421.908,181.786,423.163Zm14.46-3.925c.622,1.247,1.209,2.387,1.757,3.545a.708.708,0,0,0,.762.457c3.26-.016,6.519-.009,9.779-.011.162,0,.324-.026.549-.045-.4-.816-.768-1.565-1.144-2.31-.272-.539-.43-1.276-.871-1.548s-1.172-.087-1.776-.087C202.316,419.237,199.331,419.238,196.246,419.238Z" transform="translate(0 -105.251)"/>
      <path id="Path_1523" data-name="Path 1523" d="M263.687,304.38a5.586,5.586,0,0,1-.559.98c-.5.574-1.039,1.114-1.591,1.638a.934.934,0,0,0-.307.938c.147.765.265,1.536.4,2.3a1.424,1.424,0,0,1-.58,1.493,1.286,1.286,0,0,1-1.485.057c-.648-.359-1.308-.7-1.943-1.077a.87.87,0,0,0-1.018-.011c-.631.386-1.3.713-1.942,1.077a1.287,1.287,0,0,1-1.533-.064,1.436,1.436,0,0,1-.55-1.5c.149-.784.3-1.571.385-2.364a1.127,1.127,0,0,0-.253-.772c-.512-.588-1.078-1.13-1.63-1.682a1.452,1.452,0,0,1-.377-1.61,1.435,1.435,0,0,1,1.3-.932c.715-.1,1.433-.185,2.135-.343a1.08,1.08,0,0,0,.634-.475c.368-.663.679-1.358.991-2.051a1.42,1.42,0,0,1,1.321-.985,1.4,1.4,0,0,1,1.332.963c.319.71.646,1.42,1.02,2.1a.993.993,0,0,0,.6.439c.742.157,1.5.247,2.249.36A1.581,1.581,0,0,1,263.687,304.38Zm-10.1,5.952c-.031.608.19.767.692.505.691-.36,1.372-.737,2.051-1.119a1.485,1.485,0,0,1,1.553,0c.646.36,1.291.724,1.952,1.055.188.094.5.18.626.089s.171-.415.145-.622c-.1-.772-.211-1.544-.37-2.306a1.571,1.571,0,0,1,.487-1.533c.537-.539,1.079-1.075,1.591-1.636.14-.153.29-.433.237-.587s-.339-.294-.543-.334c-.649-.126-1.305-.222-1.963-.294a1.737,1.737,0,0,1-1.561-1.126c-.282-.682-.611-1.347-.95-2-.085-.166-.288-.38-.432-.376s-.339.221-.425.389c-.339.657-.673,1.319-.952,2a1.735,1.735,0,0,1-1.567,1.117c-.676.077-1.352.173-2.021.3-.6.114-.7.437-.275.885.55.581,1.117,1.145,1.678,1.716a1.512,1.512,0,0,1,.445,1.436C253.822,308.711,253.708,309.541,253.582,310.332Z" transform="translate(-61.668 0)"/>
      <path id="Path_1524" data-name="Path 1524" d="M202.067,353.189a4.683,4.683,0,0,1-.658.851,1.2,1.2,0,0,0-.45,1.474,1.8,1.8,0,0,1,.063.751.9.9,0,0,1-1.272.771.39.39,0,0,1-.107-.045,1.639,1.639,0,0,0-2.245-.03,1.013,1.013,0,0,1-.95-.04c-.241-.184-.3-.612-.425-.94a.389.389,0,0,1,.038-.228,1.546,1.546,0,0,0-.619-1.915.979.979,0,0,1,.538-1.78c.1-.007.193-.067.285-.058a1.1,1.1,0,0,0,1.221-.914,2.174,2.174,0,0,1,.26-.521.91.91,0,0,1,1.561-.014.513.513,0,0,1,.081.155,1.742,1.742,0,0,0,1.851,1.393C201.76,352.112,201.972,352.544,202.067,353.189Zm-3.547-1.928a2.2,2.2,0,0,1-2.438,1.808,2.259,2.259,0,0,1,.941,2.966,2.177,2.177,0,0,1,3.04,0,2.234,2.234,0,0,1,.9-2.974A2.2,2.2,0,0,1,198.52,351.261Z" transform="translate(-12.595 -45.13)"/>
      <path id="Path_1525" data-name="Path 1525" d="M360.734,353.189a4.684,4.684,0,0,1-.658.851,1.2,1.2,0,0,0-.45,1.474,1.8,1.8,0,0,1,.063.751.9.9,0,0,1-1.272.771.39.39,0,0,1-.107-.045,1.639,1.639,0,0,0-2.245-.03,1.013,1.013,0,0,1-.95-.04c-.241-.184-.3-.612-.425-.94a.389.389,0,0,1,.037-.228,1.546,1.546,0,0,0-.619-1.915.979.979,0,0,1,.538-1.78c.1-.007.193-.067.285-.058a1.1,1.1,0,0,0,1.221-.914,2.175,2.175,0,0,1,.26-.521.91.91,0,0,1,1.561-.014.509.509,0,0,1,.081.155,1.742,1.742,0,0,0,1.851,1.393C360.427,352.112,360.639,352.544,360.734,353.189Zm-3.547-1.928a2.2,2.2,0,0,1-2.438,1.808,2.259,2.259,0,0,1,.941,2.966,2.177,2.177,0,0,1,3.04,0,2.234,2.234,0,0,1,.9-2.974A2.2,2.2,0,0,1,357.187,351.261Z" transform="translate(-152.665 -45.13)"/>
      <path id="Path_1526" data-name="Path 1526" d="M269.649,300.758c-.129.17-.215.4-.353.438a.631.631,0,0,1-.556-.131,4,4,0,0,1-.569-1.135.7.7,0,0,1,.278-.6c.107-.07.47.061.569.2A10.2,10.2,0,0,1,269.649,300.758Z" transform="translate(-77.166 -0.283)"/>
      <path id="Path_1527" data-name="Path 1527" d="M331.21,300.627a14.162,14.162,0,0,1,.719-1.28.525.525,0,0,1,.508-.1c.147.088.32.368.277.5a5.529,5.529,0,0,1-.6,1.25.6.6,0,0,1-.559.108C331.4,301.042,331.324,300.8,331.21,300.627Z" transform="translate(-132.825 -0.198)"/>
      <path id="Path_1528" data-name="Path 1528" d="M349.32,313.34c-.079-.12-.343-.419-.3-.474a11.734,11.734,0,0,1,.98-1.011c.154.161.4.3.442.487C350.514,312.662,349.784,313.353,349.32,313.34Z" transform="translate(-148.543 -11.354)"/>
      <path id="Path_1529" data-name="Path 1529" d="M251.251,311.834c.482.028,1.167.725,1.071,1.01a.758.758,0,0,1-.488.435c-.33.058-.995-.669-.914-.982A1.411,1.411,0,0,1,251.251,311.834Z" transform="translate(-61.94 -11.335)"/>
    </g>
    <rect id="Rectangle_363" data-name="Rectangle 363" width="35" height="35" transform="translate(83 87)" fill="none"/>
  </g>
</svg>
