<svg xmlns="http://www.w3.org/2000/svg" width="18" height="18" viewBox="0 0 18 18">
  <g id="icon-calendar" transform="translate(-185 -1260)">
    <g id="calendar_3_" data-name="calendar (3)" transform="translate(187 1262)">
      <g id="Group_306" data-name="Group 306" transform="translate(3.214)">
        <g id="Group_305" data-name="Group 305">
          <path id="Path_372" data-name="Path 372" d="M102.936,0a.536.536,0,0,0-.536.536V1.607h1.071V.536A.536.536,0,0,0,102.936,0Z" transform="translate(-102.4)" fill="#dda601"/>
        </g>
      </g>
      <g id="Group_308" data-name="Group 308" transform="translate(10.714)">
        <g id="Group_307" data-name="Group 307">
          <path id="Path_373" data-name="Path 373" d="M341.869,0a.536.536,0,0,0-.536.536V1.607H342.4V.536A.536.536,0,0,0,341.869,0Z" transform="translate(-341.333)" fill="#dda601"/>
        </g>
      </g>
      <g id="Group_310" data-name="Group 310" transform="translate(0 1.607)">
        <g id="Group_309" data-name="Group 309">
          <path id="Path_374" data-name="Path 374" d="M13.393,51.2H11.786v2.143a.536.536,0,1,1-1.071,0V51.2H4.286v2.143a.536.536,0,1,1-1.071,0V51.2H1.607A1.607,1.607,0,0,0,0,52.807V62.986a1.607,1.607,0,0,0,1.607,1.607H13.393A1.607,1.607,0,0,0,15,62.986V52.807A1.607,1.607,0,0,0,13.393,51.2Zm.536,11.786a.536.536,0,0,1-.536.536H1.607a.536.536,0,0,1-.536-.536V56.021H13.929Z" transform="translate(0 -51.2)" fill="#dda601"/>
        </g>
      </g>
      <g id="Group_312" data-name="Group 312" transform="translate(2.679 7.5)">
        <g id="Group_311" data-name="Group 311">
          <path id="Path_375" data-name="Path 375" d="M86.94,238.933H85.869a.536.536,0,1,0,0,1.071H86.94a.536.536,0,1,0,0-1.071Z" transform="translate(-85.333 -238.933)" fill="#dda601"/>
        </g>
      </g>
      <g id="Group_314" data-name="Group 314" transform="translate(6.429 7.5)">
        <g id="Group_313" data-name="Group 313">
          <path id="Path_376" data-name="Path 376" d="M206.407,238.933h-1.071a.536.536,0,0,0,0,1.071h1.071a.536.536,0,0,0,0-1.071Z" transform="translate(-204.8 -238.933)" fill="#dda601"/>
        </g>
      </g>
      <g id="Group_316" data-name="Group 316" transform="translate(10.179 7.5)">
        <g id="Group_315" data-name="Group 315">
          <path id="Path_377" data-name="Path 377" d="M325.874,238.933H324.8a.536.536,0,0,0,0,1.071h1.071a.536.536,0,1,0,0-1.071Z" transform="translate(-324.267 -238.933)" fill="#dda601"/>
        </g>
      </g>
      <g id="Group_318" data-name="Group 318" transform="translate(2.679 9.643)">
        <g id="Group_317" data-name="Group 317">
          <path id="Path_378" data-name="Path 378" d="M86.94,307.2H85.869a.536.536,0,0,0,0,1.071H86.94a.536.536,0,0,0,0-1.071Z" transform="translate(-85.333 -307.2)" fill="#dda601"/>
        </g>
      </g>
      <g id="Group_320" data-name="Group 320" transform="translate(6.429 9.643)">
        <g id="Group_319" data-name="Group 319">
          <path id="Path_379" data-name="Path 379" d="M206.407,307.2h-1.071a.536.536,0,0,0,0,1.071h1.071a.536.536,0,0,0,0-1.071Z" transform="translate(-204.8 -307.2)" fill="#dda601"/>
        </g>
      </g>
      <g id="Group_322" data-name="Group 322" transform="translate(10.179 9.643)">
        <g id="Group_321" data-name="Group 321">
          <path id="Path_380" data-name="Path 380" d="M325.874,307.2H324.8a.536.536,0,0,0,0,1.071h1.071a.536.536,0,1,0,0-1.071Z" transform="translate(-324.267 -307.2)" fill="#dda601"/>
        </g>
      </g>
      <g id="Group_324" data-name="Group 324" transform="translate(2.679 11.786)">
        <g id="Group_323" data-name="Group 323">
          <path id="Path_381" data-name="Path 381" d="M86.94,375.467H85.869a.536.536,0,1,0,0,1.071H86.94a.536.536,0,1,0,0-1.071Z" transform="translate(-85.333 -375.467)" fill="#dda601"/>
        </g>
      </g>
      <g id="Group_326" data-name="Group 326" transform="translate(6.429 11.786)">
        <g id="Group_325" data-name="Group 325">
          <path id="Path_382" data-name="Path 382" d="M206.407,375.467h-1.071a.536.536,0,0,0,0,1.071h1.071a.536.536,0,0,0,0-1.071Z" transform="translate(-204.8 -375.467)" fill="#dda601"/>
        </g>
      </g>
      <g id="Group_328" data-name="Group 328" transform="translate(10.179 11.786)">
        <g id="Group_327" data-name="Group 327">
          <path id="Path_383" data-name="Path 383" d="M325.874,375.467H324.8a.536.536,0,0,0,0,1.071h1.071a.536.536,0,1,0,0-1.071Z" transform="translate(-324.267 -375.467)" fill="#dda601"/>
        </g>
      </g>
    </g>
    <rect id="Rectangle_78" data-name="Rectangle 78" width="18" height="18" transform="translate(185 1260)" fill="none"/>
  </g>
</svg>
