<svg xmlns="http://www.w3.org/2000/svg" width="24" height="24" viewBox="0 0 24 24">
  <g id="icon-globe" transform="translate(-307 -52)">
    <g id="global_1_" data-name="global (1)" transform="translate(309 54)">
      <g id="Group_177" data-name="Group 177" transform="translate(0 0)">
        <path id="Path_308" data-name="Path 308" d="M18.147,4.221a.167.167,0,0,0,0-.019c-.025-.036-.056-.066-.081-.1q-.28-.381-.592-.734c-.057-.064-.114-.128-.173-.191q-.322-.345-.675-.657c-.044-.039-.084-.078-.128-.116A10,10,0,0,0,14.6,1.124c-.027-.014-.056-.026-.084-.041A9.926,9.926,0,0,0,13.59.67c-.071-.026-.136-.05-.2-.071Q12.964.447,12.53.332c-.086-.023-.171-.046-.258-.066C11.986.2,11.7.149,11.408.107c-.088-.013-.176-.03-.265-.041a9.383,9.383,0,0,0-2.264,0C8.79.077,8.7.095,8.615.107c-.292.041-.58.092-.863.158-.087.02-.173.044-.258.066Q7.056.446,6.637.6l-.2.071a9.92,9.92,0,0,0-.928.413c-.028.014-.056.026-.084.041A10.006,10.006,0,0,0,3.521,2.4c-.044.038-.084.078-.128.116a9.283,9.283,0,0,0-.675.657c-.059.063-.116.126-.173.191q-.313.352-.592.734c-.026.035-.056.066-.081.1a.162.162,0,0,0-.009.019,9.927,9.927,0,0,0,0,11.532.155.155,0,0,0,.009.019c.025.036.056.066.081.1q.279.381.592.734c.057.064.114.128.173.191q.323.345.675.657c.044.039.084.078.128.116a10,10,0,0,0,1.894,1.279c.027.014.056.026.084.041a9.925,9.925,0,0,0,.928.413c.071.026.136.05.2.071q.422.152.856.266c.086.023.171.046.258.066.286.066.571.117.863.158.088.013.176.03.265.041a9.383,9.383,0,0,0,2.264,0c.089-.011.176-.028.265-.041.292-.041.58-.092.863-.158.087-.02.173-.044.258-.066q.438-.114.856-.266l.2-.071a9.919,9.919,0,0,0,.928-.413c.028-.014.056-.026.084-.041a10.005,10.005,0,0,0,1.894-1.279c.044-.038.084-.078.128-.116a9.088,9.088,0,0,0,.675-.657c.059-.063.116-.126.173-.191q.313-.353.592-.734c.026-.035.056-.066.081-.1a.162.162,0,0,0,.009-.019A9.927,9.927,0,0,0,18.147,4.221Zm-.814,1.35a8.493,8.493,0,0,1,1.2,3.7H14.262a13.318,13.318,0,0,0-.4-2.519A12.826,12.826,0,0,0,17.333,5.572ZM11.824,1.62c.04.009.078.022.118.031a7.681,7.681,0,0,1,.757.214c.038.013.075.028.112.041q.368.128.724.286l.123.06q.34.162.665.35l.143.086q.308.188.6.4c.05.036.1.071.149.111a6.512,6.512,0,0,1,.547.459c.046.041.093.082.138.125.183.173.357.357.525.547.021.025.044.048.066.071a11.972,11.972,0,0,1-3.044.978,18.148,18.148,0,0,0-1.921-3.813C11.625,1.589,11.727,1.6,11.824,1.62ZM7.179,9.274A11.909,11.909,0,0,1,7.572,6.99a20.452,20.452,0,0,0,2.437.143,20.5,20.5,0,0,0,2.439-.146,11.887,11.887,0,0,1,.39,2.288ZM12.838,10.7a11.909,11.909,0,0,1-.393,2.284,20.889,20.889,0,0,0-4.876,0,11.89,11.89,0,0,1-.39-2.284ZM10.009,1.888A17.239,17.239,0,0,1,12,5.6a18.891,18.891,0,0,1-1.989.106A19.033,19.033,0,0,1,8.022,5.6,17.374,17.374,0,0,1,10.009,1.888ZM3.592,4.334c.168-.19.343-.373.525-.547.045-.043.092-.084.138-.125q.264-.241.547-.459c.049-.038.1-.071.149-.111q.291-.214.6-.4L5.693,2.6q.325-.19.665-.35l.123-.06q.355-.161.724-.286c.037-.014.071-.029.112-.041.248-.083.5-.151.757-.214.04-.009.078-.022.119-.031.1-.021.2-.031.3-.049A18.149,18.149,0,0,0,6.571,5.384a11.972,11.972,0,0,1-3.044-.978C3.548,4.381,3.571,4.358,3.592,4.334ZM2.684,5.572a12.823,12.823,0,0,0,3.47,1.183,13.318,13.318,0,0,0-.4,2.519H1.48A8.494,8.494,0,0,1,2.684,5.572Zm0,8.832a8.493,8.493,0,0,1-1.2-3.7H5.756a13.318,13.318,0,0,0,.4,2.519A12.823,12.823,0,0,0,2.684,14.4Zm5.509,3.952c-.04-.009-.078-.022-.118-.031a7.679,7.679,0,0,1-.757-.214c-.038-.013-.075-.028-.112-.041q-.368-.128-.724-.286l-.123-.06q-.34-.162-.665-.35l-.143-.086q-.308-.188-.6-.4c-.05-.036-.1-.071-.149-.111a6.512,6.512,0,0,1-.547-.459c-.046-.041-.093-.082-.138-.125-.183-.173-.357-.357-.525-.547-.021-.025-.044-.048-.066-.071a11.972,11.972,0,0,1,3.044-.978A18.148,18.148,0,0,0,8.491,18.4C8.392,18.387,8.291,18.377,8.193,18.355Zm1.816-.268A17.238,17.238,0,0,1,8.02,14.376a18.581,18.581,0,0,1,3.977,0h0A17.371,17.371,0,0,1,10.009,18.087Zm6.416-2.445c-.168.19-.343.373-.525.547-.045.043-.092.084-.138.125q-.264.241-.547.459c-.049.038-.1.075-.149.111q-.291.214-.6.4l-.143.086q-.324.189-.665.35l-.123.06q-.355.161-.724.286c-.037.014-.071.029-.112.041-.248.083-.5.151-.757.214-.04.009-.078.022-.119.031-.1.021-.2.031-.3.049a18.146,18.146,0,0,0,1.921-3.813,11.972,11.972,0,0,1,3.044.978C16.469,15.594,16.447,15.617,16.425,15.642Zm.908-1.238a12.823,12.823,0,0,0-3.47-1.183,13.318,13.318,0,0,0,.4-2.519h4.275A8.494,8.494,0,0,1,17.333,14.4Z" transform="translate(-0.016 0.002)" fill="#fff"/>
      </g>
    </g>
    <rect id="Rectangle_71" data-name="Rectangle 71" width="24" height="24" transform="translate(307 52)" fill="none"/>
  </g>
</svg>
