<svg xmlns="http://www.w3.org/2000/svg" width="35" height="35" viewBox="0 0 35 35">
  <path id="icon-package" d="M1.014,20.7a1.025,1.025,0,0,1,0-2.049c4.284,0,3.968-.429,3.968,2.938h14.1a3.289,3.289,0,0,1,3.283,3.192l7.838-2.1c4.631-1.239,6.994,5.627,2.042,7.37C26.47,32.087,15.521,35.94,4.982,33.1c0,2.236-.235,1.881-3.968,1.881a1.025,1.025,0,0,1,0-2.049H2.929V20.7ZM21.339,2.049V6.641a1.025,1.025,0,0,1-1.545.884L17.508,6.4,15.156,7.558a1.026,1.026,0,0,1-1.477-.917l0-4.592H10.255V16.533H24.761V2.049Zm-2.053,0V5c-2.046-1.007-1.521-1-3.558,0V2.049ZM9.229,0A1.026,1.026,0,0,0,8.2,1.024V17.557a1.026,1.026,0,0,0,1.026,1.025H25.787a1.026,1.026,0,0,0,1.026-1.025V1.024A1.026,1.026,0,0,0,25.787,0ZM4.982,23.638v7.337c10.079,2.958,20.915-.856,26.582-2.851a1.781,1.781,0,1,0-.832-3.463l-9.3,2.487a3.278,3.278,0,0,1-2.354,1H11.624a1.025,1.025,0,0,1,0-2.049h7.458a1.23,1.23,0,0,0,0-2.46Zm0,0" transform="translate(0 0)" fill="#fff" fill-rule="evenodd"/>
</svg>
