<svg xmlns="http://www.w3.org/2000/svg" width="20" height="16.364" viewBox="0 0 20 16.364">
  <g id="icon-backBlack" transform="translate(0 0)">
    <path id="Path_19" data-name="Path 19" d="M1.364,210.727H18.635a1.364,1.364,0,0,0,0-2.727H1.364a1.364,1.364,0,0,0,0,2.727Zm0,0" transform="translate(0.001 -201.181)" fill="#2c2d2f"/>
    <path id="Path_20" data-name="Path 20" d="M130.854,144.348a1.364,1.364,0,0,0,.964-2.329l-5.854-5.854,5.854-5.852a1.364,1.364,0,0,0-1.929-1.929l-6.818,6.818a1.364,1.364,0,0,0,0,1.929l6.818,6.818A1.361,1.361,0,0,0,130.854,144.348Zm0,0" transform="translate(-122.672 -127.984)" fill="#2c2d2f"/>
  </g>
</svg>
