<svg xmlns="http://www.w3.org/2000/svg" width="24" height="24" viewBox="0 0 24 24">
  <g id="icon-nofication" transform="translate(-346 -52)">
    <g id="Group_257" data-name="Group 257" transform="translate(349 54)">
      <path id="Path_361" data-name="Path 361" d="M323.549,202.926H320.44c-.817,0-1.633.016-2.449,0a1.588,1.588,0,0,1-1.378-2.46,5.1,5.1,0,0,1,.454-.737,8.012,8.012,0,0,0,1.715-5.162,13.521,13.521,0,0,1,.711-4.918,5.573,5.573,0,0,1,3.971-3.7,10.056,10.056,0,0,1,4.252-.018,5.437,5.437,0,0,1,3.938,3.523,10.054,10.054,0,0,1,.7,3.428c.067,1.154.116,2.311.231,3.461a5.652,5.652,0,0,0,1.056,2.619c.336.491.688.972.989,1.484a1.6,1.6,0,0,1-1.414,2.477c-1.65.016-3.3,0-4.95,0h-.6a2.234,2.234,0,0,1-.492,2.208,2.073,2.073,0,0,1-1.65.659C324.142,205.749,323.366,204.65,323.549,202.926Zm-5.862-1.493H333.6c-.382-.6-.686-1.105-1.016-1.592a6.889,6.889,0,0,1-1.419-3.548c-.059-1.223-.094-2.453-.26-3.664a12.209,12.209,0,0,0-.7-2.9,3.72,3.72,0,0,0-3.079-2.454,17.958,17.958,0,0,0-2.238-.075,3.867,3.867,0,0,0-3.529,1.952,5.264,5.264,0,0,0-.722,1.726,23.928,23.928,0,0,0-.407,3.69,9.169,9.169,0,0,1-1.907,5.841A9.914,9.914,0,0,0,317.687,201.433Zm7.221,2.171a.756.756,0,0,0,.676.751.735.735,0,0,0,.75-.67.714.714,0,1,0-1.426-.081Z" transform="translate(-316.362 -185.711)" fill="#fff"/>
    </g>
    <rect id="Rectangle_72" data-name="Rectangle 72" width="24" height="24" transform="translate(346 52)" fill="none"/>
  </g>
</svg>
