<svg xmlns="http://www.w3.org/2000/svg" width="18" height="18.058" viewBox="0 0 18 18.058">
  <g id="icon-notify" transform="translate(-41 -273.967)">
    <path id="Path_361" data-name="Path 361" d="M5.22,12.325l-2.241-.007c-.588,0-1.177.007-1.765-.008a1.142,1.142,0,0,1-1-1.762,3.61,3.61,0,0,1,.326-.526A5.665,5.665,0,0,0,1.765,6.335a9.571,9.571,0,0,1,.5-3.514A3.967,3.967,0,0,1,5.118.186a7.3,7.3,0,0,1,3.064,0,3.943,3.943,0,0,1,2.846,2.528,7.166,7.166,0,0,1,.512,2.452c.051.825.089,1.653.175,2.475a4.05,4.05,0,0,0,.767,1.875c.243.352.5.7.716,1.063a1.14,1.14,0,0,1-1.013,1.768c-1.189.007-2.378-.005-3.567-.009H8.187a1.582,1.582,0,0,1-.349,1.577,1.491,1.491,0,0,1-1.187.468C5.654,14.345,5.092,13.556,5.22,12.325ZM.992,11.243l11.463.038c-.277-.431-.5-.792-.736-1.141A4.937,4.937,0,0,1,10.688,7.6c-.046-.875-.074-1.754-.2-2.62a8.712,8.712,0,0,0-.514-2.074A2.7,2.7,0,0,0,7.754,1.145,13.049,13.049,0,0,0,6.14,1.086,2.77,2.77,0,0,0,3.6,2.473a3.721,3.721,0,0,0-.516,1.232A16.936,16.936,0,0,0,2.8,6.342a6.484,6.484,0,0,1-1.36,4.171A7,7,0,0,0,.992,11.243ZM6.2,12.812a.546.546,0,0,0,.489.538.524.524,0,0,0,.539-.477.55.55,0,0,0-.486-.542A.542.542,0,0,0,6.2,12.812Z" transform="translate(40.999 278.524) rotate(-20)"/>
    <rect id="Rectangle_339" data-name="Rectangle 339" width="18" height="17.814" transform="translate(41 274)" fill="none" opacity="0.1"/>
  </g>
</svg>
