<svg xmlns="http://www.w3.org/2000/svg" width="18" height="18" viewBox="0 0 18 18">
  <g id="icon-pin" transform="translate(-41 -125)">
    <path id="push-pin" d="M.033,6.113A.287.287,0,0,1,.208,5.9a7.013,7.013,0,0,1,5.27.083L9.749,2.354a3.209,3.209,0,0,1,.59-2.247A.289.289,0,0,1,10.547,0a.3.3,0,0,1,.218.084l4.378,4.378a.287.287,0,0,1-.024.428,3.257,3.257,0,0,1-2.218.59L9.25,9.772a7.524,7.524,0,0,1,.088,5.263.287.287,0,0,1-.47.1L4.687,10.95l-3.9,3.9a.287.287,0,0,1-.406-.406l3.9-3.9L.111,6.374A.288.288,0,0,1,.033,6.113ZM5.1,10.55,8.952,14.4a7.283,7.283,0,0,0-.3-4.566.288.288,0,0,1,.043-.3l3.863-4.541a.288.288,0,0,1,.219-.1.255.255,0,0,1,.044,0A2.97,2.97,0,0,0,14.49,4.62L10.615.745a2.692,2.692,0,0,0-.277,1.679.286.286,0,0,1-.1.265L5.71,6.544a.29.29,0,0,1-.317.037A6.558,6.558,0,0,0,.838,6.288Z" transform="translate(42.473 126.5)" stroke="#000" stroke-width="0.4"/>
    <rect id="Rectangle_339" data-name="Rectangle 339" width="18" height="18" transform="translate(41 125)" fill="none" opacity="0.1"/>
  </g>
</svg>
