<svg xmlns="http://www.w3.org/2000/svg" width="32" height="32" viewBox="0 0 32 32">
  <g id="icon-home" transform="translate(-36 -1413)">
    <g id="Group_199" data-name="Group 199" transform="translate(2 689.594)">
      <circle id="Ellipse_2" data-name="Ellipse 2" cx="4.5" cy="4.5" r="4.5" transform="translate(51 729.001)" fill="#fad200"/>
      <g id="home" transform="translate(39 712.389)">
        <path id="Path_318" data-name="Path 318" d="M57.34,205.62H42.066A2.069,2.069,0,0,1,40,203.554V192.682a.719.719,0,0,1,1.438,0v10.872a.63.63,0,0,0,.629.629H57.34a.63.63,0,0,0,.629-.629V192.682a.719.719,0,0,1,1.438,0v10.872A2.069,2.069,0,0,1,57.34,205.62Z" transform="translate(-38.203 -168.042)"/>
        <path id="Path_319" data-name="Path 319" d="M22.282,27.155a.716.716,0,0,1-.508-.211l-8.939-8.939a1.889,1.889,0,0,0-2.668,0L1.227,26.944A.719.719,0,0,1,.211,25.928L9.15,16.989a3.328,3.328,0,0,1,4.7,0l8.939,8.939a.719.719,0,0,1-.508,1.227Z"/>
        <path id="Path_320" data-name="Path 320" d="M182.469,297.327h-5.75a.719.719,0,0,1-.719-.719v-6.379a2.249,2.249,0,0,1,2.246-2.246h2.7a2.249,2.249,0,0,1,2.246,2.246v6.379A.719.719,0,0,1,182.469,297.327Zm-5.031-1.437h4.313v-5.66a.81.81,0,0,0-.809-.809h-2.7a.81.81,0,0,0-.809.809Z" transform="translate(-168.094 -259.749)"/>
      </g>
    </g>
    <rect id="Rectangle_74" data-name="Rectangle 74" width="32" height="32" transform="translate(36 1413)" fill="none"/>
  </g>
</svg>
