<svg xmlns="http://www.w3.org/2000/svg" width="32" height="32" viewBox="0 0 32 32">
  <g id="icon-transaction" transform="translate(-276 -2231)">
    <rect id="Rectangle_76" data-name="Rectangle 76" width="32" height="32" transform="translate(276 2231)" fill="none"/>
    <g id="Group_1410" data-name="Group 1410" transform="translate(2 1)">
      <circle id="Ellipse_6" data-name="Ellipse 6" cx="4.5" cy="4.5" r="4.5" transform="translate(278 2233)" fill="#fad200"/>
      <g id="Group_1409" data-name="Group 1409" transform="translate(-27.135 2074.699)">
        <path id="Path_1517" data-name="Path 1517" d="M325.936,166.842c0,2.308,0,.363,0,2.584q0,6.744,0,13.489c0,.848-.274,1.036-1.052.733a7.1,7.1,0,0,0-2.27-.822,6.608,6.608,0,0,0-2.27.819,1.122,1.122,0,0,1-1.04,0c-.257-.139-.564-.19-.812-.342a2.618,2.618,0,0,0-2.909.023,2.365,2.365,0,0,1-2.627,0,2.658,2.658,0,0,0-2.956.015,5,5,0,0,1-1.06.419c-.45.144-.7-.026-.73-.5-.042-.64-.075-1.283-.075-1.924,0-7.031,0-9.9.009-16.927a2.816,2.816,0,0,1,2.27-3.045,3.224,3.224,0,0,1,.671-.053q8.177,0,16.353,0a2.805,2.805,0,0,1,2.959,2.925c.005.59,0,1.181,0,1.771,0,.692-.158.842-.867.844C328.355,166.844,327.178,166.842,325.936,166.842ZM324.811,182.4v-.748c0-6.888-.006-9.611.02-16.5a4.528,4.528,0,0,1,.506-2.734h-.686q-6.715,0-13.43,0c-1.349,0-1.953.614-1.953,1.978,0,7.183,0,10.2,0,17.384v.629c.542-.215,1.033-.38,1.5-.6a1.575,1.575,0,0,1,1.437-.01,5.564,5.564,0,0,0,2.121.757,5.921,5.921,0,0,0,2.119-.792,1.386,1.386,0,0,1,1.2-.016,6.271,6.271,0,0,0,2.215.81,8.437,8.437,0,0,0,2.222-.806,1.9,1.9,0,0,1,1.036-.011A17.393,17.393,0,0,1,324.811,182.4Zm4.456-16.674c0-.626.024-1.2-.006-1.768a1.662,1.662,0,0,0-3.3-.109c-.061.612-.012,1.235-.012,1.877Z" transform="translate(0 0)"/>
        <path id="Path_1518" data-name="Path 1518" d="M346.014,265.3c1.6,0,3.191.005,4.786,0,.41,0,.765.08.771.554s-.363.574-.762.574q-4.786,0-9.573,0c-.413,0-.758-.129-.747-.592.011-.432.34-.54.738-.538C342.823,265.305,344.419,265.3,346.014,265.3Z" transform="translate(-28.985 -93.164)"/>
        <path id="Path_1519" data-name="Path 1519" d="M345.83,319.631c-1.561,0-3.122-.006-4.683,0-.4,0-.745-.068-.8-.537-.044-.37.267-.592.806-.592q4.735,0,9.47,0h.1c.383.011.721.128.714.572s-.322.557-.72.556C349.091,319.627,347.46,319.631,345.83,319.631Z" transform="translate(-28.853 -140.832)"/>
        <path id="Path_1520" data-name="Path 1520" d="M345.9,293.207c-1.614,0-3.229,0-4.843,0-.481,0-.808-.294-.658-.625a.832.832,0,0,1,.591-.436c3.281-.027,6.561-.019,9.842-.02.364,0,.626.15.628.534,0,.417-.284.552-.665.551Q348.349,293.2,345.9,293.207Z" transform="translate(-28.872 -117.197)"/>
      </g>
    </g>
  </g>
</svg>
