<svg xmlns="http://www.w3.org/2000/svg" width="66.351" height="86.446" viewBox="0 0 66.351 86.446">
  <g id="resumeiicon" transform="translate(3.922 0.001)">
    <path id="Path_349" data-name="Path 349" d="M39.605.609l-.02-.02A1.94,1.94,0,0,0,38.172,0a.769.769,0,0,0-.216.02H6.292A10.218,10.218,0,0,0-3.922,10.234v66A10.219,10.219,0,0,0,6.292,86.445H52.215A10.218,10.218,0,0,0,62.429,76.231V24.2A2.028,2.028,0,0,0,61.86,22.8Zm.53,6.069,15.635,15.6h-9.35a6.3,6.3,0,0,1-6.285-6.285Zm12.08,75.8H6.292A6.3,6.3,0,0,1,.006,76.191v-66A6.306,6.306,0,0,1,6.292,3.908H36.207v12.08A10.219,10.219,0,0,0,46.421,26.2H58.5V76.191a6.291,6.291,0,0,1-6.286,6.286Zm0,0" transform="translate(0 0)" fill="#dda601"/>
    <path id="Path_350" data-name="Path 350" d="M75.023,326.983H99.5a1.964,1.964,0,0,0,0-3.928H75.023a1.964,1.964,0,1,0,0,3.928Zm0,0" transform="translate(-64.881 -272.28)" fill="#dda601"/>
    <path id="Path_351" data-name="Path 351" d="M113.247,417.656H75.024a1.964,1.964,0,1,0,0,3.928h38.223a1.964,1.964,0,1,0,0-3.928Zm0,0" transform="translate(-64.881 -352.012)" fill="#dda601"/>
    <path id="Path_352" data-name="Path 352" d="M96.892,101.774a7.209,7.209,0,1,0-7.209-7.209A7.209,7.209,0,0,0,96.892,101.774Zm0-10.47a3.28,3.28,0,1,1-3.28,3.28A3.28,3.28,0,0,1,96.892,91.3Zm0,0" transform="translate(-78.893 -73.626)" fill="#dda601"/>
    <path id="Path_353" data-name="Path 353" d="M75.023,200.817a1.97,1.97,0,0,0,1.964-1.964v-1.572a5.892,5.892,0,1,1,11.785,0v1.572a1.964,1.964,0,0,0,3.929,0v-1.572a9.821,9.821,0,0,0-19.642,0v1.572A1.97,1.97,0,0,0,75.023,200.817Zm0,0" transform="translate(-64.881 -157.997)" fill="#dda601"/>
  </g>
</svg>
