<svg xmlns="http://www.w3.org/2000/svg" width="33.806" height="33.788" viewBox="0 0 33.806 33.788">
  <g id="add-card" transform="translate(-157.439 -348.019)">
    <path id="Path_1399" data-name="Path 1399" d="M170.983,372.844c-2.558,0-5.03,0-7.5,0a5.644,5.644,0,0,1-6.04-6.017q0-6.493,0-12.987a5.6,5.6,0,0,1,5.7-5.794q11.131-.052,22.263,0a5.668,5.668,0,0,1,5.8,5.913c.012,4.329.1,8.661-.047,12.985-.053,1.592-.025,3.161.014,4.749a10.093,10.093,0,0,1-20,1.956C171.127,373.4,171.06,373.167,170.983,372.844Zm-11.308-15.722c0,.277,0,.57,0,.863q0,4.36,0,8.72c0,2.553,1.323,3.874,3.89,3.887,2.2.01,4.391-.024,6.586.018.65.012.9-.173,1.032-.826a9.656,9.656,0,0,1,7-7.769c3.894-1.181,7.308-.117,10.185,2.73.153.152.32.289.53.478v-8.1ZM173.206,371.7a7.805,7.805,0,0,0,7.891,7.849,7.88,7.88,0,1,0-7.891-7.849Zm-13.472-16.95h29.174c.246-2.9-1.131-4.448-3.914-4.449q-10.656,0-21.312.012C160.775,350.321,159.473,351.775,159.735,354.754Z" fill="#dda601"/>
    <path id="Path_1400" data-name="Path 1400" d="M185.03,423.147c-.71,0-1.419-.006-2.129,0a1.064,1.064,0,0,1-1.219-1.093,1.046,1.046,0,0,1,1.095-1.134q2.266-.062,4.535,0a1.108,1.108,0,0,1-.06,2.216c-.74.009-1.481,0-2.221,0Z" transform="translate(-19.745 -59.353)" fill="#dda601"/>
    <path id="Path_1401" data-name="Path 1401" d="M263.917,457.123c-.715,0-1.325,0-1.934,0-.774,0-1.341-.282-1.407-1.127-.055-.7.463-1.106,1.371-1.121.611-.01,1.223,0,1.97,0,0-.736,0-1.4,0-2.067,0-.756.345-1.3,1.12-1.31s1.142.49,1.124,1.272c-.015.646,0,1.292,0,2.106.745,0,1.44.005,2.134,0,.73-.007,1.215.317,1.236,1.067.023.8-.495,1.153-1.243,1.178-.672.022-1.345,0-2.127,0,0,.75-.011,1.419,0,2.088.016.739-.329,1.225-1.058,1.245-.776.021-1.161-.487-1.181-1.245C263.9,458.564,263.917,457.918,263.917,457.123Z" transform="translate(-83.999 -84.279)" fill="#dda601"/>
  </g>
</svg>
