<svg xmlns="http://www.w3.org/2000/svg" width="55.101" height="38" viewBox="0 0 55.101 38">
  <g id="master-card" transform="translate(-38 -426)">
    <g id="mastercard" transform="translate(38 429)">
      <path id="Path_1371" data-name="Path 1371" d="M234.66,117.33a16.53,16.53,0,0,1-33.061,0h0a16.53,16.53,0,1,1,33.061,0Z" transform="translate(-179.56 -100.8)" fill="#ffb600"/>
      <path id="Path_1372" data-name="Path 1372" d="M218.13,100.8a16.573,16.573,0,0,1,16.53,16.53h0a16.53,16.53,0,0,1-33.061,0" transform="translate(-179.56 -100.8)" fill="#f7981d"/>
      <path id="Path_1373" data-name="Path 1373" d="M352.8,100.8a16.573,16.573,0,0,1,16.53,16.53h0a16.517,16.517,0,0,1-16.53,16.53" transform="translate(-314.229 -100.8)" fill="#ff8500"/>
      <path id="Path_1374" data-name="Path 1374" d="M16.355,100.8a16.531,16.531,0,0,0,.175,33.06,16.723,16.723,0,0,0,11.108-4.286h0a15.718,15.718,0,0,0,1.662-1.749H25.889a20.178,20.178,0,0,1-1.224-1.662h5.86a11.2,11.2,0,0,0,.962-1.749H23.7a10.425,10.425,0,0,1-.7-1.749h9.1a17.367,17.367,0,0,0,.875-5.248,22.576,22.576,0,0,0-.35-3.5H22.478a12.786,12.786,0,0,1,.437-1.749h9.1a10.424,10.424,0,0,0-.7-1.749h-7.7a17.347,17.347,0,0,1,.962-1.749h5.86a8.317,8.317,0,0,0-1.312-1.749H25.889a14.908,14.908,0,0,1,1.662-1.662,16.139,16.139,0,0,0-11.108-4.286C16.443,100.8,16.443,100.8,16.355,100.8Z" transform="translate(0 -100.8)" fill="#ff5050"/>
      <path id="Path_1375" data-name="Path 1375" d="M0,118.755a16.517,16.517,0,0,0,16.53,16.53A16.723,16.723,0,0,0,27.638,131h0a15.716,15.716,0,0,0,1.662-1.749H25.889a20.177,20.177,0,0,1-1.224-1.662h5.86a11.2,11.2,0,0,0,.962-1.749H23.7a10.425,10.425,0,0,1-.7-1.749h9.1a17.367,17.367,0,0,0,.875-5.248,22.576,22.576,0,0,0-.35-3.5H22.478a12.787,12.787,0,0,1,.437-1.749h9.1a10.424,10.424,0,0,0-.7-1.749h-7.7a17.344,17.344,0,0,1,.962-1.749h5.86a8.318,8.318,0,0,0-1.312-1.749H25.889a14.908,14.908,0,0,1,1.662-1.662A16.139,16.139,0,0,0,16.443,102.4h-.087" transform="translate(0 -102.225)" fill="#e52836"/>
      <path id="Path_1376" data-name="Path 1376" d="M149.775,135.286A16.723,16.723,0,0,0,160.883,131h0a15.716,15.716,0,0,0,1.662-1.749h-3.411a20.18,20.18,0,0,1-1.224-1.662h5.86a11.2,11.2,0,0,0,.962-1.749h-7.784a10.426,10.426,0,0,1-.7-1.749h9.1a17.367,17.367,0,0,0,.875-5.248,22.575,22.575,0,0,0-.35-3.5H155.722a12.784,12.784,0,0,1,.437-1.749h9.1a10.424,10.424,0,0,0-.7-1.749h-7.7a17.341,17.341,0,0,1,.962-1.749h5.86a8.318,8.318,0,0,0-1.312-1.749h-3.236a14.907,14.907,0,0,1,1.662-1.662,16.139,16.139,0,0,0-11.108-4.286H149.6" transform="translate(-133.245 -102.225)" fill="#cb2026"/>
      <g id="Group_1286" data-name="Group 1286" transform="translate(1.574 12.245)">
        <path id="Path_1377" data-name="Path 1377" d="M184.136,227.7l.262-1.487a3.788,3.788,0,0,1-.437.087c-.612,0-.7-.35-.612-.525l.525-3.061h.962l.262-1.662h-.875L184.4,220H182.65s-1.05,5.772-1.05,6.472a1.313,1.313,0,0,0,1.4,1.487A2.684,2.684,0,0,0,184.136,227.7Z" transform="translate(-163.32 -219.213)" fill="#fff"/>
        <path id="Path_1378" data-name="Path 1378" d="M210.4,232.646a2.782,2.782,0,0,0,3.061,3.061,4.54,4.54,0,0,0,1.837-.262l.35-1.662a5.243,5.243,0,0,1-1.837.437c-1.924,0-1.574-1.4-1.574-1.4h3.586a11.339,11.339,0,0,0,.262-1.574,2.37,2.37,0,0,0-2.536-2.536C211.712,228.535,210.4,230.459,210.4,232.646Zm3.061-2.536c.962,0,.787,1.137.787,1.224h-1.924C212.324,231.246,212.5,230.109,213.461,230.109Z" transform="translate(-188.972 -226.961)" fill="#fff"/>
        <path id="Path_1379" data-name="Path 1379" d="M300.81,221.284l.35-1.924a4.3,4.3,0,0,1-1.487.437c-1.224,0-1.749-.962-1.749-2.012,0-2.1,1.05-3.236,2.274-3.236a2.921,2.921,0,0,1,1.574.525l.262-1.837a6.15,6.15,0,0,0-2.012-.437c-2.012,0-4.023,1.749-4.023,5.073,0,2.187,1.05,3.673,3.149,3.673A7.849,7.849,0,0,0,300.81,221.284Z" transform="translate(-265.214 -212.8)" fill="#fff"/>
        <path id="Path_1380" data-name="Path 1380" d="M89.724,227.2a6.194,6.194,0,0,0-2.1.35l-.262,1.487a5.17,5.17,0,0,1,1.924-.35c.612,0,1.137.087,1.137.612,0,.35-.087.437-.087.437h-.787c-1.487,0-3.149.612-3.149,2.624,0,1.574,1.05,1.924,1.662,1.924A2.628,2.628,0,0,0,89.9,233.5l-.087.7h1.574l.7-4.81A2.073,2.073,0,0,0,89.724,227.2Zm.35,3.936c0,.262-.175,1.662-1.224,1.662a.683.683,0,0,1-.7-.7c0-.437.262-1.05,1.574-1.05A1.379,1.379,0,0,0,90.073,231.136Z" transform="translate(-78.528 -225.626)" fill="#fff"/>
        <path id="Path_1381" data-name="Path 1381" d="M137.212,233.572a2.242,2.242,0,0,0,2.624-2.274c0-2.187-2.1-1.749-2.1-2.624,0-.437.35-.612.962-.612.262,0,1.224.087,1.224.087l.262-1.574a6.643,6.643,0,0,0-1.662-.175c-1.312,0-2.624.525-2.624,2.274,0,2.012,2.187,1.837,2.187,2.624,0,.525-.612.612-1.05.612a5.72,5.72,0,0,1-1.574-.262l-.262,1.574C135.287,233.4,135.725,233.572,137.212,233.572Z" transform="translate(-121.993 -224.913)" fill="#fff"/>
        <path id="Path_1382" data-name="Path 1382" d="M432.185,214.4l-.35,2.361a2.425,2.425,0,0,0-1.662-.875c-1.574,0-2.974,1.924-2.974,4.2,0,1.4.7,2.886,2.187,2.886a2.335,2.335,0,0,0,1.662-.7l-.087.612h1.749l1.312-8.4Zm-.787,4.635c0,.962-.437,2.187-1.4,2.187-.612,0-.962-.525-.962-1.4,0-1.4.612-2.274,1.4-2.274C431.048,217.549,431.4,217.986,431.4,219.035Z" transform="translate(-382.07 -214.225)" fill="#fff"/>
        <path id="Path_1383" data-name="Path 1383" d="M16.062,222.8l1.05-6.3.175,6.3h1.224l2.274-6.3-.962,6.3h1.837l1.4-8.4H20.172l-1.749,5.16-.087-5.16H15.8l-1.4,8.4Z" transform="translate(-14.4 -214.225)" fill="#fff"/>
        <path id="Path_1384" data-name="Path 1384" d="M261.924,235.622c.525-2.886.612-5.248,1.837-4.81a6.867,6.867,0,0,1,.612-2.012h-.35c-.787,0-1.4,1.05-1.4,1.05l.175-.962h-1.662L260,235.709h1.924Z" transform="translate(-233.149 -227.051)" fill="#fff"/>
        <path id="Path_1385" data-name="Path 1385" d="M349.724,227.2a6.194,6.194,0,0,0-2.1.35l-.262,1.487a5.17,5.17,0,0,1,1.924-.35c.612,0,1.137.087,1.137.612,0,.35-.087.437-.087.437h-.787c-1.487,0-3.149.612-3.149,2.624,0,1.574,1.05,1.924,1.662,1.924a2.628,2.628,0,0,0,1.837-.787l-.087.7h1.574l.7-4.81A2.042,2.042,0,0,0,349.724,227.2Zm.437,3.936c0,.262-.175,1.662-1.224,1.662a.683.683,0,0,1-.7-.7c0-.437.262-1.05,1.574-1.05C350.073,231.136,350.073,231.136,350.161,231.136Z" transform="translate(-310.103 -225.626)" fill="#fff"/>
        <path id="Path_1386" data-name="Path 1386" d="M396.324,235.622c.525-2.886.612-5.248,1.837-4.81a6.865,6.865,0,0,1,.612-2.012h-.35c-.787,0-1.4,1.05-1.4,1.05l.175-.962h-1.662l-1.137,6.822h1.924Z" transform="translate(-352.856 -227.051)" fill="#fff"/>
      </g>
      <g id="Group_1287" data-name="Group 1287" transform="translate(1.574 12.245)">
        <path id="Path_1387" data-name="Path 1387" d="M180,226.472a1.313,1.313,0,0,0,1.4,1.487,3.329,3.329,0,0,0,1.312-.262l.262-1.487a3.786,3.786,0,0,1-.437.087c-.612,0-.7-.35-.612-.525l.525-3.061h.962l.262-1.662H182.8l.175-1.05" transform="translate(-161.895 -219.213)" fill="#dce5e5"/>
        <path id="Path_1388" data-name="Path 1388" d="M218.4,232.646c0,2.449.787,3.061,2.187,3.061a4.54,4.54,0,0,0,1.837-.262l.35-1.662a5.244,5.244,0,0,1-1.837.437c-1.924,0-1.574-1.4-1.574-1.4h3.586a11.34,11.34,0,0,0,.262-1.574,2.37,2.37,0,0,0-2.536-2.536C218.837,228.535,218.4,230.459,218.4,232.646Zm2.187-2.536c.962,0,1.137,1.137,1.137,1.224H219.45C219.45,231.246,219.624,230.109,220.587,230.109Z" transform="translate(-196.097 -226.961)" fill="#dce5e5"/>
        <path id="Path_1389" data-name="Path 1389" d="M307.936,221.284l.35-1.924a4.3,4.3,0,0,1-1.487.437c-1.224,0-1.749-.962-1.749-2.012,0-2.1,1.05-3.236,2.274-3.236a2.921,2.921,0,0,1,1.574.525l.262-1.837a6.149,6.149,0,0,0-2.012-.437c-2.012,0-3.149,1.749-3.149,5.073,0,2.187.175,3.673,2.274,3.673A7.848,7.848,0,0,0,307.936,221.284Z" transform="translate(-272.339 -212.8)" fill="#dce5e5"/>
        <path id="Path_1390" data-name="Path 1390" d="M87.362,230.549a5.17,5.17,0,0,1,1.924-.35c.612,0,1.137.087,1.137.612,0,.35-.087.437-.087.437h-.787c-1.487,0-3.149.612-3.149,2.624,0,1.574,1.05,1.924,1.662,1.924a2.628,2.628,0,0,0,1.837-.787l-.087.7h1.574l.7-4.81c0-2.012-1.749-2.1-2.449-2.1m1.312,3.761a2.863,2.863,0,0,1-2.1,1.662.683.683,0,0,1-.7-.7c0-.437.262-1.05,1.574-1.05A7.144,7.144,0,0,0,90.948,232.561Z" transform="translate(-78.528 -227.051)" fill="#dce5e5"/>
        <path id="Path_1391" data-name="Path 1391" d="M136,233.4a7.4,7.4,0,0,0,2.012.175,2.242,2.242,0,0,0,2.624-2.274c0-2.187-2.1-1.749-2.1-2.624,0-.437.35-.612.962-.612.262,0,1.224.087,1.224.087l.262-1.574a6.643,6.643,0,0,0-1.662-.175c-1.312,0-1.749.525-1.749,2.274,0,2.012,1.312,1.837,1.312,2.624,0,.525-.612.612-1.05.612" transform="translate(-122.706 -224.913)" fill="#dce5e5"/>
        <path id="Path_1392" data-name="Path 1392" d="M438.909,217.474a2.425,2.425,0,0,0-1.662-.875c-1.574,0-2.1,1.924-2.1,4.2,0,1.4-.175,2.886,1.312,2.886a2.335,2.335,0,0,0,1.662-.7l-.087.612h1.749l1.312-8.4m-2.274,4.548c0,.962-.787,2.187-1.749,2.187-.612,0-.962-.525-.962-1.4,0-1.4.612-2.274,1.4-2.274A1.336,1.336,0,0,1,438.822,219.748Z" transform="translate(-389.143 -214.938)" fill="#dce5e5"/>
        <path id="Path_1393" data-name="Path 1393" d="M16.062,222.8l1.05-6.3.175,6.3h1.224l2.274-6.3-.962,6.3h1.837l1.4-8.4H20.872l-2.449,5.16-.087-5.16h-.962L14.4,222.8Z" transform="translate(-14.4 -214.225)" fill="#dce5e5"/>
        <path id="Path_1394" data-name="Path 1394" d="M260.8,235.622h1.837c.525-2.886.612-5.248,1.837-4.81a6.865,6.865,0,0,1,.612-2.012h-.35c-.787,0-1.4,1.05-1.4,1.05l.175-.962" transform="translate(-233.862 -227.051)" fill="#dce5e5"/>
        <path id="Path_1395" data-name="Path 1395" d="M347.362,230.549a5.17,5.17,0,0,1,1.924-.35c.612,0,1.137.087,1.137.612,0,.35-.087.437-.087.437h-.787c-1.487,0-3.149.612-3.149,2.624,0,1.574,1.05,1.924,1.662,1.924a2.628,2.628,0,0,0,1.837-.787l-.087.7h1.574l.7-4.81c0-2.012-1.749-2.1-2.449-2.1m1.312,3.761a2.863,2.863,0,0,1-2.1,1.662.683.683,0,0,1-.7-.7c0-.437.262-1.05,1.574-1.05A7.692,7.692,0,0,0,350.948,232.561Z" transform="translate(-310.103 -227.051)" fill="#dce5e5"/>
        <path id="Path_1396" data-name="Path 1396" d="M395.2,235.622h1.837c.525-2.886.612-5.248,1.837-4.81a6.863,6.863,0,0,1,.612-2.012h-.35c-.787,0-1.4,1.05-1.4,1.05l.175-.962" transform="translate(-353.568 -227.051)" fill="#dce5e5"/>
      </g>
    </g>
    <rect id="Rectangle_307" data-name="Rectangle 307" width="55" height="38" transform="translate(38 426)" fill="none"/>
  </g>
</svg>
