<svg id="visa" xmlns="http://www.w3.org/2000/svg" width="55" height="38" viewBox="0 0 55 38">
  <path id="Path_1362" data-name="Path 1362" d="M55,114.194a3.254,3.254,0,0,1-3.251,3.257H3.251A3.254,3.254,0,0,1,0,114.194V82.708a3.254,3.254,0,0,1,3.251-3.257h48.5A3.254,3.254,0,0,1,55,82.708v31.485Z" transform="translate(0 -79.451)" fill="#fff"/>
  <path id="Path_1363" data-name="Path 1363" d="M39.449,197.083l-1.294-6.206a1.543,1.543,0,0,0-1.669-1.144H30.555l-.053.284C35.122,191.136,38.179,193.837,39.449,197.083Z" transform="translate(-27.219 -177.864)" fill="#f79f1a"/>
  <g id="Group_1285" data-name="Group 1285">
    <path id="Path_1364" data-name="Path 1364" d="M189.725,190.892h-3.833L183.5,204.939h3.826Z" transform="translate(-163.792 -178.899)" fill="#059bbf"/>
    <path id="Path_1365" data-name="Path 1365" d="M73.316,205l6.028-14.023H75.288l-3.75,9.581-.4-1.447a14.988,14.988,0,0,0-5.3-5.822l3.428,11.716Z" transform="translate(-58.751 -178.978)" fill="#059bbf"/>
    <path id="Path_1366" data-name="Path 1366" d="M252.287,198.354c.014-1.595-1.01-2.811-3.216-3.816-1.341-.649-2.158-1.082-2.149-1.74,0-.582.692-1.207,2.192-1.207a7.068,7.068,0,0,1,2.865.538l.346.159.519-3.043a9.926,9.926,0,0,0-3.433-.587c-3.784,0-6.447,1.9-6.471,4.634-.024,2.019,1.9,3.144,3.356,3.817,1.49.686,1.99,1.125,1.981,1.74-.01.941-1.188,1.37-2.288,1.37a8.034,8.034,0,0,1-3.606-.736l-.49-.225-.538,3.148a12.08,12.08,0,0,0,4.264.746C249.643,203.153,252.259,201.274,252.287,198.354Z" transform="translate(-215.442 -176.906)" fill="#059bbf"/>
    <path id="Path_1367" data-name="Path 1367" d="M345.211,202.954l4.9,0c.115.489.466,2.106.466,2.106h3.553l-3.1-14.038h-2.957a1.905,1.905,0,0,0-2,1.163l-5.687,12.874h4.024S345.062,203.334,345.211,202.954Zm2.625-6.8c-.019.038.317-.812.51-1.341l.259,1.211s.731,3.356.885,4.058h-3.178C346.63,199.272,347.836,196.152,347.836,196.152Z" transform="translate(-303.854 -179.019)" fill="#059bbf"/>
    <path id="Path_1368" data-name="Path 1368" d="M51.749,79.451H3.251A3.254,3.254,0,0,0,0,82.708v3.381H55V82.708A3.254,3.254,0,0,0,51.749,79.451Z" transform="translate(0 -79.451)" fill="#059bbf"/>
  </g>
  <path id="Path_1369" data-name="Path 1369" d="M51.749,377.509H3.251A3.254,3.254,0,0,1,0,374.252v-3.38H55v3.38A3.254,3.254,0,0,1,51.749,377.509Z" transform="translate(0 -339.509)" fill="#f79f1a"/>
  <path id="Path_1370" data-name="Path 1370" d="M2.316,114.194V82.708a3.257,3.257,0,0,1,3.257-3.257H3.257A3.257,3.257,0,0,0,0,82.708v31.486a3.257,3.257,0,0,0,3.257,3.257H5.573A3.257,3.257,0,0,1,2.316,114.194Z" transform="translate(0 -79.451)" fill="#202121" opacity="0.15"/>
</svg>
