<svg xmlns="http://www.w3.org/2000/svg" width="14" height="14" viewBox="0 0 14 14">
  <g id="un-verified" transform="translate(-170 -155)">
    <circle id="Ellipse_36" data-name="Ellipse 36" cx="7" cy="7" r="7" transform="translate(170 155)" fill="#ef0404"/>
    <path id="close" d="M3.517,2.644,5.154,1.008a.463.463,0,0,0,0-.654L4.936.136a.463.463,0,0,0-.654,0L2.645,1.772,1.009.135a.463.463,0,0,0-.654,0L.136.354a.463.463,0,0,0,0,.654L1.772,2.644.136,4.281a.463.463,0,0,0,0,.654l.218.218a.463.463,0,0,0,.654,0L2.645,3.517,4.281,5.153a.463.463,0,0,0,.654,0l.218-.218a.463.463,0,0,0,0-.654Zm0,0" transform="translate(174.666 159.667)" fill="#fff"/>
  </g>
</svg>
