<svg xmlns="http://www.w3.org/2000/svg" xmlns:xlink="http://www.w3.org/1999/xlink" width="215.333" height="82.031" viewBox="0 0 215.333 82.031">
  <defs>
    <linearGradient id="linear-gradient" x1="0.5" y1="0.757" x2="0.5" y2="0.214" gradientUnits="objectBoundingBox">
      <stop offset="0.161" stop-color="#dc9613"/>
      <stop offset="1" stop-color="#fdc900"/>
    </linearGradient>
    <linearGradient id="linear-gradient-2" x1="0.5" y1="0.782" x2="0.5" y2="0.026" xlink:href="#linear-gradient"/>
    <linearGradient id="linear-gradient-3" x1="0.5" y1="0.769" x2="0.5" y2="0.026" xlink:href="#linear-gradient"/>
    <linearGradient id="linear-gradient-4" x1="0.5" y1="0.796" x2="0.5" y2="0.013" gradientUnits="objectBoundingBox">
      <stop offset="0.129" stop-color="#dc9613"/>
      <stop offset="1" stop-color="#fdc900"/>
    </linearGradient>
  </defs>
  <g id="Group_1321" data-name="Group 1321" transform="translate(-255.279 -234.554)">
    <g id="Group_1317" data-name="Group 1317" transform="translate(279.522 297.968)">
      <path id="Path_1403" data-name="Path 1403" d="M292.592,332.826a.593.593,0,0,1,.671-.671h4.349c2.418,0,4.146,1.342,4.146,3.659a3.342,3.342,0,0,1-1.768,3.089v.042a3.457,3.457,0,0,1,2.357,3.475c0,2.7-2.093,4.085-4.634,4.085h-4.451a.593.593,0,0,1-.671-.67Zm5.02,5.365a2.032,2.032,0,0,0,2.114-2.175,1.986,1.986,0,0,0-2.155-2.114h-2.987v4.288Zm.2,6.565a2.294,2.294,0,0,0,2.479-2.439,2.331,2.331,0,0,0-2.479-2.459h-3.232v4.9Z" transform="translate(-292.592 -332.155)" fill="#030504"/>
      <path id="Path_1404" data-name="Path 1404" d="M312.273,339.082a.593.593,0,0,1,.671-.671h.63a.587.587,0,0,1,.65.671v5.467c0,1.424.3,2.561,1.931,2.561,2.114,0,3.353-1.849,3.353-3.881v-4.147a.593.593,0,0,1,.671-.671h.63a.6.6,0,0,1,.671.671v8.943a.6.6,0,0,1-.671.67h-.569a.593.593,0,0,1-.67-.67v-.915a3.2,3.2,0,0,1,.061-.59h-.041a4.28,4.28,0,0,1-3.821,2.42c-2.317,0-3.5-1.22-3.5-3.944Z" transform="translate(-299.486 -334.346)" fill="#030504"/>
      <path id="Path_1405" data-name="Path 1405" d="M331.1,351.073a2.041,2.041,0,0,0,.813.224,2.114,2.114,0,0,0,1.768-1.545l.509-1.178-3.984-9.391c-.2-.468.02-.772.509-.772h.792a.709.709,0,0,1,.752.53l2.419,6.2c.183.508.366,1.24.366,1.24h.04s.163-.692.346-1.22l2.337-6.2a.693.693,0,0,1,.752-.549h.731c.487,0,.711.3.528.772L335.251,350.5a3.53,3.53,0,0,1-3.334,2.459,3.668,3.668,0,0,1-1.422-.326.6.6,0,0,1-.305-.874l.162-.346A.584.584,0,0,1,331.1,351.073Z" transform="translate(-305.734 -334.346)" fill="#030504"/>
      <path id="Path_1406" data-name="Path 1406" d="M358.548,332.826a.593.593,0,0,1,.671-.671h.773a.839.839,0,0,1,.813.448l6.118,8.882c.508.773,1.179,2.073,1.179,2.073h.04s-.122-1.281-.122-2.073v-8.658a.6.6,0,0,1,.671-.671h.65a.594.594,0,0,1,.671.671v13.007a.593.593,0,0,1-.671.67h-.772a.809.809,0,0,1-.793-.447l-6.138-8.861c-.509-.793-1.179-2.094-1.179-2.094h-.04s.122,1.28.122,2.094v8.637a.593.593,0,0,1-.671.67h-.65a.593.593,0,0,1-.671-.67Z" transform="translate(-315.695 -332.155)" fill="#030504"/>
      <path id="Path_1407" data-name="Path 1407" d="M386.6,338.037a5.388,5.388,0,1,1-5.528,5.365A5.364,5.364,0,0,1,386.6,338.037Zm0,9.064a3.682,3.682,0,1,0-3.536-3.7A3.553,3.553,0,0,0,386.6,347.1Z" transform="translate(-323.586 -334.215)" fill="#030504"/>
      <path id="Path_1408" data-name="Path 1408" d="M401.078,339.164c-.142-.468.082-.753.569-.753h.671a.7.7,0,0,1,.752.57l2.012,6.645c.142.53.244,1.1.244,1.1h.041s.122-.569.284-1.1L407.725,339a.674.674,0,0,1,.731-.569h.63a.7.7,0,0,1,.752.569l2.073,6.625c.143.53.264,1.1.264,1.1h.041a10.65,10.65,0,0,1,.264-1.1l2.012-6.645a.663.663,0,0,1,.732-.57h.671c.488,0,.711.285.569.753l-2.907,8.963a.707.707,0,0,1-.752.568h-1a.7.7,0,0,1-.752-.568l-1.971-6.037a8.281,8.281,0,0,1-.284-1.117h-.04a10.392,10.392,0,0,1-.305,1.117l-1.951,6.037a.707.707,0,0,1-.752.568h-1.016a.707.707,0,0,1-.752-.568Z" transform="translate(-330.578 -334.346)" fill="#030504"/>
      <path id="Path_1409" data-name="Path 1409" d="M438.521,332.826a.594.594,0,0,1,.671-.671h4.573a4.267,4.267,0,0,1,4.492,4.492,4.316,4.316,0,0,1-4.492,4.552h-3.252v4.634a.593.593,0,0,1-.671.67h-.651a.593.593,0,0,1-.671-.67Zm4.92,6.625a2.589,2.589,0,0,0,2.784-2.8,2.537,2.537,0,0,0-2.764-2.744h-2.947v5.548Z" transform="translate(-343.708 -332.155)" fill="#030504"/>
      <path id="Path_1410" data-name="Path 1410" d="M462.339,342.223h.528v-.264a2,2,0,0,0-2.236-2.255,4.781,4.781,0,0,0-2.318.65.628.628,0,0,1-.914-.244l-.162-.284a.606.606,0,0,1,.224-.915,6.754,6.754,0,0,1,3.332-.873c2.561,0,4.045,1.422,4.045,4.024v5.833a.6.6,0,0,1-.67.671h-.508a.6.6,0,0,1-.671-.671v-.609a2.821,2.821,0,0,1,.062-.63h-.041a3.815,3.815,0,0,1-3.353,2.155,3.172,3.172,0,0,1-3.455-3.048C456.2,342.569,460.2,342.223,462.339,342.223Zm-2.236,5.02c1.727,0,2.785-1.748,2.785-3.272v-.447h-.529c-1.443,0-4.166.123-4.166,2.073A1.728,1.728,0,0,0,460.1,347.243Z" transform="translate(-349.901 -334.215)" fill="#030504"/>
      <path id="Path_1411" data-name="Path 1411" d="M473.811,351.073a2.045,2.045,0,0,0,.813.224,2.114,2.114,0,0,0,1.769-1.545l.509-1.178-3.984-9.391c-.2-.468.02-.772.508-.772h.793a.71.71,0,0,1,.752.53l2.419,6.2c.183.508.366,1.24.366,1.24h.04s.163-.692.346-1.22l2.337-6.2a.692.692,0,0,1,.752-.549h.732c.487,0,.711.3.528.772L477.958,350.5a3.529,3.529,0,0,1-3.334,2.459,3.669,3.669,0,0,1-1.422-.326.6.6,0,0,1-.3-.874l.162-.346A.583.583,0,0,1,473.811,351.073Z" transform="translate(-355.721 -334.346)" fill="#030504"/>
      <path id="Path_1412" data-name="Path 1412" d="M499.8,341.667h.691c.447,0,.589.183.65.691.081,1.424.711,2.541,2.236,2.541,1.158,0,2.256-.671,2.256-2.541V333.9h-2.947a.6.6,0,0,1-.65-.671v-.406a.587.587,0,0,1,.65-.671h4.269a.593.593,0,0,1,.671.671v9.552a4.037,4.037,0,0,1-4.228,4.37,4.081,4.081,0,0,1-4.268-4.41A.6.6,0,0,1,499.8,341.667Z" transform="translate(-364.937 -332.155)" fill="#030504"/>
      <path id="Path_1413" data-name="Path 1413" d="M522.788,342.223h.528v-.264a2,2,0,0,0-2.236-2.255,4.776,4.776,0,0,0-2.316.65.629.629,0,0,1-.915-.244l-.162-.284a.606.606,0,0,1,.224-.915,6.754,6.754,0,0,1,3.332-.873c2.561,0,4.044,1.422,4.044,4.024v5.833a.6.6,0,0,1-.67.671h-.508a.6.6,0,0,1-.671-.671v-.609a2.876,2.876,0,0,1,.061-.63h-.041a3.815,3.815,0,0,1-3.353,2.155,3.172,3.172,0,0,1-3.455-3.048C516.65,342.569,520.654,342.223,522.788,342.223Zm-2.236,5.02c1.728,0,2.785-1.748,2.785-3.272v-.447h-.528c-1.443,0-4.167.123-4.167,2.073A1.728,1.728,0,0,0,520.552,347.243Z" transform="translate(-371.075 -334.215)" fill="#030504"/>
      <path id="Path_1414" data-name="Path 1414" d="M535.33,338.951a.593.593,0,0,1,.671-.671h.467c.447,0,.67.223.67.57v.609a3.778,3.778,0,0,1-.04.549h.04a3.724,3.724,0,0,1,3.455-1.971c2.764,0,4.513,2.195,4.513,5.386,0,3.273-1.972,5.386-4.654,5.386a3.518,3.518,0,0,1-3.191-1.83h-.041a6.068,6.068,0,0,1,.06.894v4.085a.586.586,0,0,1-.65.671H536a.593.593,0,0,1-.671-.671Zm4.816,8.15c1.626,0,2.967-1.321,2.967-3.659,0-2.236-1.2-3.679-2.906-3.679-1.544,0-2.967,1.077-2.967,3.7C537.24,345.293,538.257,347.1,540.146,347.1Z" transform="translate(-377.618 -334.215)" fill="#030504"/>
      <path id="Path_1415" data-name="Path 1415" d="M559.865,342.223h.528v-.264a2,2,0,0,0-2.236-2.255,4.781,4.781,0,0,0-2.317.65.629.629,0,0,1-.915-.244l-.162-.284a.606.606,0,0,1,.224-.915,6.754,6.754,0,0,1,3.332-.873c2.561,0,4.044,1.422,4.044,4.024v5.833a.6.6,0,0,1-.67.671h-.507a.6.6,0,0,1-.671-.671v-.609a2.878,2.878,0,0,1,.06-.63h-.041a3.816,3.816,0,0,1-3.353,2.155,3.172,3.172,0,0,1-3.455-3.048C553.727,342.569,557.731,342.223,559.865,342.223Zm-2.236,5.02c1.727,0,2.785-1.748,2.785-3.272v-.447h-.528c-1.443,0-4.167.123-4.167,2.073A1.728,1.728,0,0,0,557.629,347.243Z" transform="translate(-384.062 -334.215)" fill="#030504"/>
      <path id="Path_1416" data-name="Path 1416" d="M572.375,338.951a.6.6,0,0,1,.671-.671h.57a.593.593,0,0,1,.671.671v.915a3.179,3.179,0,0,1-.061.589h.04a4.266,4.266,0,0,1,3.9-2.418c2.418,0,3.516,1.32,3.516,3.943v5.914a.593.593,0,0,1-.671.671h-.63a.6.6,0,0,1-.67-.671v-5.467c0-1.443-.285-2.581-1.931-2.581a3.551,3.551,0,0,0-3.436,3.8v4.247a.593.593,0,0,1-.67.671h-.63a.6.6,0,0,1-.671-.671Z" transform="translate(-390.594 -334.215)" fill="#030504"/>
    </g>
    <g id="Group_1319" data-name="Group 1319" transform="translate(255.279 234.554)">
      <g id="Group_1318" data-name="Group 1318" transform="translate(0 5.219)">
        <path id="Path_1417" data-name="Path 1417" d="M283.362,276.531s-13.6-13.69-28.083-11.41l4.93-17.264,5.181,1.89-.894,1.936-2-.464-2.585,10.724S275.474,263.643,283.362,276.531Z" transform="translate(-255.279 -244.432)" fill="#dc9613"/>
        <path id="Path_1418" data-name="Path 1418" d="M267.144,255.921l7.826-13.335s10.112,5.222,12.8,13.1c0,0-7.107-10.3-11.235-9.893l-5.508,8.575S284.6,260.2,286.389,270.52A31.329,31.329,0,0,0,267.144,255.921Z" transform="translate(-259.435 -242.586)" fill="#fdc900"/>
      </g>
      <path id="Path_1419" data-name="Path 1419" d="M309.45,255.886h5.033a3.822,3.822,0,0,0,3.835-3.915c0-1.918-1.119-3.835-4.155-3.835H309.45v5.558s-3.518-10.5-16.858-11.96v-1.987c0-3.436,1.837-5.193,5.273-5.193h16.379c12.3,0,20.853,5.033,20.853,15.181,0,4.474-2.158,9.587-6.472,12.144v.16c6.791,2.157,8.789,8.07,8.789,12.544C337.414,287.845,325.989,292,314,292H297.865c-3.436,0-5.273-1.837-5.273-5.193V246.458C302.6,245.907,309.45,255.886,309.45,255.886Zm5.992,22.531a4.76,4.76,0,0,0,5.114-4.634c0-2.077-1.6-4.475-5.034-4.475H309.45v9.108Z" transform="translate(-268.349 -234.554)" fill="url(#linear-gradient)"/>
    </g>
    <path id="Path_1420" data-name="Path 1420" d="M456.016,239.747c0-3.436,1.837-5.193,5.273-5.193h19.895c11.505,0,19.1,8.709,19.1,20.534,0,11.9-7.59,20.773-19.1,20.773h-8.309v10.946c0,3.356-1.757,5.193-5.193,5.193h-6.392c-3.436,0-5.273-1.837-5.273-5.193Zm21.572,21.732c4,0,5.593-2.876,5.593-6.391s-1.6-6.152-5.274-6.152h-5.034v12.544Z" transform="translate(-70.314 0)" fill="url(#linear-gradient-2)"/>
    <path id="Path_1421" data-name="Path 1421" d="M529.457,268.99h6.552c4.075,0,4.314,1.757,4.874,4.794.4,2,1.6,3.835,3.835,3.835,2.078,0,3.2-1.6,3.2-4.235V248.936H537.288c-3.436,0-5.193-1.838-5.193-5.193v-4c0-3.436,1.757-5.193,5.193-5.193h22.291c3.435,0,5.193,1.758,5.193,5.193v34.036c0,12.7-10.147,19.175-20.054,19.175-10.466,0-20.454-7.19-20.454-18.057C524.264,270.827,525.7,268.99,529.457,268.99Z" transform="translate(-94.22 0)" fill="url(#linear-gradient-3)"/>
    <g id="Group_1320" data-name="Group 1320" transform="translate(329.484 234.554)">
      <path id="Path_1422" data-name="Path 1422" d="M369.489,239.771c0-3.451,1.846-5.217,5.3-5.217h7.706c2.97,0,4.9,1.043,6.261,3.532l9.472,18.541a113.863,113.863,0,0,1,4.9,10.595h.16s-.722-6.742-.722-10.595V239.771c0-3.451,1.765-5.217,5.217-5.217H414.2c3.451,0,5.3,1.766,5.3,5.217v47.276c0,3.371-1.847,5.217-5.3,5.217h-7.706a6.337,6.337,0,0,1-6.18-3.531l-9.552-18.461a106.682,106.682,0,0,1-4.9-10.515h-.16s.722,6.662.722,10.515v16.775c0,3.371-1.765,5.217-5.217,5.217h-6.421c-3.451,0-5.3-1.846-5.3-5.217Z" transform="translate(-369.489 -234.554)" fill="url(#linear-gradient-4)"/>
    </g>
  </g>
</svg>
