<svg xmlns="http://www.w3.org/2000/svg" xmlns:xlink="http://www.w3.org/1999/xlink" width="371" height="205" viewBox="0 0 371 205">
  <defs>
    <linearGradient id="linear-gradient" x1="-0.011" y1="0.5" x2="0.835" y2="0.5" gradientUnits="objectBoundingBox">
      <stop offset="0" stop-color="#fbf0d0"/>
      <stop offset="1" stop-color="#fff"/>
    </linearGradient>
    <clipPath id="clip-path">
      <rect id="Rectangle_325" data-name="Rectangle 325" width="184" height="205" rx="16" transform="translate(218.5 194)" fill="#fff" stroke="#707070" stroke-width="1"/>
    </clipPath>
    <filter id="Rectangle_327" x="272" y="145" width="86" height="49" filterUnits="userSpaceOnUse">
      <feOffset dy="3" input="SourceAlpha"/>
      <feGaussianBlur stdDeviation="2" result="blur"/>
      <feFlood flood-color="#fff" flood-opacity="0.161"/>
      <feComposite operator="in" in2="blur"/>
      <feComposite in="SourceGraphic"/>
    </filter>
    <linearGradient id="linear-gradient-2" x1="0.5" y1="0.757" x2="0.5" y2="0.214" gradientUnits="objectBoundingBox">
      <stop offset="0.161" stop-color="#dc9613"/>
      <stop offset="1" stop-color="#fdc900"/>
    </linearGradient>
    <linearGradient id="linear-gradient-3" x1="0.5" y1="0.782" x2="0.5" y2="0.026" xlink:href="#linear-gradient-2"/>
    <linearGradient id="linear-gradient-4" x1="0.5" y1="0.769" x2="0.5" y2="0.026" xlink:href="#linear-gradient-2"/>
    <linearGradient id="linear-gradient-5" x1="0.5" y1="0.796" x2="0.5" y2="0.013" gradientUnits="objectBoundingBox">
      <stop offset="0.129" stop-color="#dc9613"/>
      <stop offset="1" stop-color="#fdc900"/>
    </linearGradient>
  </defs>
  <g id="BNPJ-card" transform="translate(-18 -194)">
    <g id="Rectangle_326" data-name="Rectangle 326" transform="translate(18 194)" stroke="#dda601" stroke-width="2" fill="url(#linear-gradient)">
      <rect width="371" height="205" rx="16" stroke="none"/>
      <rect x="1" y="1" width="369" height="203" rx="15" fill="none"/>
    </g>
    <g id="Mask_Group_30" data-name="Mask Group 30" transform="translate(-13.5)" clip-path="url(#clip-path)">
      <path id="Path_1438" data-name="Path 1438" d="M6446.873,845.085s-2.622,124.743-117.584,204.651c1.7.786,173.079,0,173.079,0V845.085Z" transform="translate(-6099.419 -651.085)" fill="#dda601"/>
    </g>
    <g transform="matrix(1, 0, 0, 1, 18, 194)" filter="url(#Rectangle_327)">
      <rect id="Rectangle_327-2" data-name="Rectangle 327" width="74" height="37" rx="5" transform="translate(278 148)" fill="#fff"/>
    </g>
    <g id="Group_1370" data-name="Group 1370" transform="translate(300.345 349)">
      <g id="Group_1317" data-name="Group 1317" transform="translate(7.23 18.912)">
        <path id="Path_1403" data-name="Path 1403" d="M292.592,332.355a.177.177,0,0,1,.2-.2h1.3a1.1,1.1,0,0,1,1.236,1.091,1,1,0,0,1-.527.921v.012a1.031,1.031,0,0,1,.7,1.036,1.23,1.23,0,0,1-1.382,1.218h-1.327a.177.177,0,0,1-.2-.2Zm1.5,1.6a.606.606,0,0,0,.63-.649.592.592,0,0,0-.643-.63h-.891v1.279Zm.061,1.958a.684.684,0,0,0,.739-.727.7.7,0,0,0-.739-.733h-.964v1.461Z" transform="translate(-292.592 -332.155)" fill="#030504"/>
        <path id="Path_1404" data-name="Path 1404" d="M312.273,338.611a.177.177,0,0,1,.2-.2h.188a.175.175,0,0,1,.194.2v1.63c0,.425.091.764.576.764a1.057,1.057,0,0,0,1-1.158v-1.237a.177.177,0,0,1,.2-.2h.188a.179.179,0,0,1,.2.2v2.667a.179.179,0,0,1-.2.2h-.17a.177.177,0,0,1-.2-.2v-.273a.951.951,0,0,1,.018-.176h-.012a1.276,1.276,0,0,1-1.14.722c-.691,0-1.042-.364-1.042-1.176Z" transform="translate(-308.459 -337.199)" fill="#030504"/>
        <path id="Path_1405" data-name="Path 1405" d="M330.407,342.187a.608.608,0,0,0,.242.067.63.63,0,0,0,.527-.461l.152-.351-1.188-2.8c-.061-.139.006-.23.152-.23h.236a.211.211,0,0,1,.224.158l.721,1.849c.054.152.109.37.109.37h.012s.049-.206.1-.364l.7-1.849a.207.207,0,0,1,.224-.164h.218c.145,0,.212.091.158.23l-1.352,3.376a1.053,1.053,0,0,1-.994.733,1.094,1.094,0,0,1-.424-.1.18.18,0,0,1-.091-.261l.048-.1A.174.174,0,0,1,330.407,342.187Z" transform="translate(-322.84 -337.199)" fill="#030504"/>
        <path id="Path_1406" data-name="Path 1406" d="M358.548,332.355a.177.177,0,0,1,.2-.2h.23a.25.25,0,0,1,.242.133l1.824,2.649c.152.23.352.618.352.618h.012s-.036-.382-.036-.618v-2.582a.179.179,0,0,1,.2-.2h.194a.177.177,0,0,1,.2.2v3.879a.177.177,0,0,1-.2.2h-.23a.241.241,0,0,1-.236-.133l-1.831-2.643c-.152-.237-.352-.624-.352-.624h-.012s.036.382.036.624v2.576a.177.177,0,0,1-.2.2h-.194a.177.177,0,0,1-.2-.2Z" transform="translate(-345.768 -332.155)" fill="#030504"/>
        <path id="Path_1407" data-name="Path 1407" d="M382.725,338.037a1.607,1.607,0,1,1-1.649,1.6A1.6,1.6,0,0,1,382.725,338.037Zm0,2.7a1.1,1.1,0,1,0-1.055-1.1A1.06,1.06,0,0,0,382.725,340.74Z" transform="translate(-363.931 -336.897)" fill="#030504"/>
        <path id="Path_1408" data-name="Path 1408" d="M401.049,338.636c-.042-.14.024-.225.17-.225h.2a.207.207,0,0,1,.224.17l.6,1.982c.042.158.073.327.073.327h.012s.036-.17.085-.327l.618-1.976a.2.2,0,0,1,.218-.17h.188a.207.207,0,0,1,.224.17l.618,1.976c.043.158.079.327.079.327h.012a3.179,3.179,0,0,1,.079-.327l.6-1.982a.2.2,0,0,1,.218-.17h.2c.146,0,.212.085.17.225l-.867,2.673a.211.211,0,0,1-.224.169h-.3a.207.207,0,0,1-.224-.169l-.588-1.8a2.472,2.472,0,0,1-.085-.333h-.012a3.1,3.1,0,0,1-.091.333l-.582,1.8a.211.211,0,0,1-.224.169h-.3a.211.211,0,0,1-.224-.169Z" transform="translate(-380.023 -337.199)" fill="#030504"/>
        <path id="Path_1409" data-name="Path 1409" d="M438.521,332.355a.177.177,0,0,1,.2-.2h1.364a1.273,1.273,0,0,1,1.34,1.34,1.287,1.287,0,0,1-1.34,1.358h-.97v1.382a.177.177,0,0,1-.2.2h-.194a.177.177,0,0,1-.2-.2Zm1.467,1.976a.772.772,0,0,0,.83-.836.757.757,0,0,0-.824-.818h-.879v1.655Z" transform="translate(-410.245 -332.155)" fill="#030504"/>
        <path id="Path_1410" data-name="Path 1410" d="M458.032,339.285h.157v-.079a.6.6,0,0,0-.667-.673,1.426,1.426,0,0,0-.691.194.187.187,0,0,1-.273-.073l-.048-.085a.181.181,0,0,1,.067-.273,2.014,2.014,0,0,1,.994-.26,1.091,1.091,0,0,1,1.206,1.2v1.74a.179.179,0,0,1-.2.2h-.152a.179.179,0,0,1-.2-.2v-.182a.841.841,0,0,1,.018-.188h-.012a1.138,1.138,0,0,1-1,.643.946.946,0,0,1-1.03-.909C456.2,339.389,457.395,339.285,458.032,339.285Zm-.667,1.5a.926.926,0,0,0,.83-.976v-.133h-.158c-.43,0-1.242.037-1.242.618A.515.515,0,0,0,457.365,340.783Z" transform="translate(-424.499 -336.897)" fill="#030504"/>
        <path id="Path_1411" data-name="Path 1411" d="M473.114,342.187a.61.61,0,0,0,.242.067.63.63,0,0,0,.527-.461l.152-.351-1.188-2.8c-.061-.139.006-.23.152-.23h.236a.212.212,0,0,1,.224.158l.721,1.849c.055.152.109.37.109.37h.012s.048-.206.1-.364l.7-1.849a.207.207,0,0,1,.224-.164h.218c.145,0,.212.091.158.23l-1.352,3.376a1.052,1.052,0,0,1-.994.733,1.1,1.1,0,0,1-.424-.1.179.179,0,0,1-.091-.261l.048-.1A.174.174,0,0,1,473.114,342.187Z" transform="translate(-437.896 -337.199)" fill="#030504"/>
        <path id="Path_1412" data-name="Path 1412" d="M499.329,334.992h.206c.133,0,.176.055.194.206.024.425.212.758.667.758.345,0,.673-.2.673-.758v-2.521h-.879a.178.178,0,0,1-.194-.2v-.121a.175.175,0,0,1,.194-.2h1.273a.177.177,0,0,1,.2.2V335.2a1.2,1.2,0,0,1-1.261,1.3,1.217,1.217,0,0,1-1.273-1.315A.179.179,0,0,1,499.329,334.992Z" transform="translate(-459.109 -332.155)" fill="#030504"/>
        <path id="Path_1413" data-name="Path 1413" d="M518.481,339.285h.158v-.079a.6.6,0,0,0-.667-.673,1.426,1.426,0,0,0-.691.194.187.187,0,0,1-.273-.073l-.048-.085a.181.181,0,0,1,.067-.273,2.015,2.015,0,0,1,.994-.26,1.09,1.09,0,0,1,1.206,1.2v1.74a.179.179,0,0,1-.2.2h-.151a.179.179,0,0,1-.2-.2v-.182a.858.858,0,0,1,.018-.188h-.012a1.138,1.138,0,0,1-1,.643.946.946,0,0,1-1.03-.909C516.65,339.389,517.844,339.285,518.481,339.285Zm-.667,1.5a.925.925,0,0,0,.83-.976v-.133h-.157c-.43,0-1.243.037-1.243.618A.515.515,0,0,0,517.814,340.783Z" transform="translate(-473.235 -336.897)" fill="#030504"/>
        <path id="Path_1414" data-name="Path 1414" d="M535.33,338.31a.177.177,0,0,1,.2-.2h.139c.133,0,.2.067.2.17v.182a1.12,1.12,0,0,1-.012.164h.012a1.111,1.111,0,0,1,1.031-.588c.824,0,1.346.655,1.346,1.606a1.437,1.437,0,0,1-1.388,1.606,1.049,1.049,0,0,1-.952-.546h-.012a1.816,1.816,0,0,1,.018.267v1.218a.175.175,0,0,1-.194.2h-.188a.177.177,0,0,1-.2-.2Zm1.436,2.431c.485,0,.885-.394.885-1.091,0-.667-.357-1.1-.867-1.1-.46,0-.885.321-.885,1.1C535.9,340.2,536.2,340.74,536.766,340.74Z" transform="translate(-488.295 -336.897)" fill="#030504"/>
        <path id="Path_1415" data-name="Path 1415" d="M555.558,339.285h.158v-.079a.6.6,0,0,0-.667-.673,1.427,1.427,0,0,0-.691.194.188.188,0,0,1-.273-.073l-.048-.085a.181.181,0,0,1,.067-.273,2.014,2.014,0,0,1,.994-.26,1.09,1.09,0,0,1,1.206,1.2v1.74a.179.179,0,0,1-.2.2h-.151a.179.179,0,0,1-.2-.2v-.182a.86.86,0,0,1,.018-.188h-.012a1.138,1.138,0,0,1-1,.643.946.946,0,0,1-1.03-.909C553.727,339.389,554.921,339.285,555.558,339.285Zm-.667,1.5a.926.926,0,0,0,.831-.976v-.133h-.158c-.43,0-1.243.037-1.243.618A.515.515,0,0,0,554.891,340.783Z" transform="translate(-503.127 -336.897)" fill="#030504"/>
        <path id="Path_1416" data-name="Path 1416" d="M572.375,338.31a.179.179,0,0,1,.2-.2h.17a.177.177,0,0,1,.2.2v.273a.944.944,0,0,1-.018.176h.012a1.272,1.272,0,0,1,1.164-.721c.721,0,1.049.394,1.049,1.176v1.764a.177.177,0,0,1-.2.2h-.188a.179.179,0,0,1-.2-.2v-1.631c0-.43-.085-.77-.576-.77a1.059,1.059,0,0,0-1.025,1.134v1.267a.177.177,0,0,1-.2.2h-.188a.179.179,0,0,1-.2-.2Z" transform="translate(-518.162 -336.897)" fill="#030504"/>
      </g>
      <g id="Group_1319" data-name="Group 1319" transform="translate(0 0)">
        <g id="Group_1318" data-name="Group 1318" transform="translate(0 1.556)">
          <path id="Path_1417" data-name="Path 1417" d="M263.654,256.408s-4.055-4.083-8.375-3.4l1.47-5.149,1.545.564-.267.577-.6-.138-.771,3.2S261.3,252.565,263.654,256.408Z" transform="translate(-255.279 -246.836)" fill="#dc9613"/>
          <path id="Path_1418" data-name="Path 1418" d="M267.144,246.563l2.334-3.977s3.016,1.557,3.816,3.906c0,0-2.12-3.072-3.351-2.95L268.3,246.1s4.048,1.741,4.582,4.818A9.344,9.344,0,0,0,267.144,246.563Z" transform="translate(-264.845 -242.586)" fill="#fdc900"/>
        </g>
        <path id="Path_1419" data-name="Path 1419" d="M297.62,240.916h1.5a1.14,1.14,0,0,0,1.144-1.167,1.1,1.1,0,0,0-1.239-1.144H297.62v1.658a5.844,5.844,0,0,0-5.028-3.567V236.1a1.392,1.392,0,0,1,1.573-1.549h4.885c3.67,0,6.219,1.5,6.219,4.527a4.26,4.26,0,0,1-1.93,3.622v.048a3.744,3.744,0,0,1,2.621,3.741c0,3.955-3.407,5.194-6.982,5.194h-4.813a1.4,1.4,0,0,1-1.573-1.549V238.1C295.578,237.94,297.62,240.916,297.62,240.916Zm1.787,6.72a1.42,1.42,0,0,0,1.525-1.382,1.376,1.376,0,0,0-1.5-1.334H297.62v2.716Z" transform="translate(-285.362 -234.554)" fill="url(#linear-gradient-2)"/>
      </g>
      <path id="Path_1420" data-name="Path 1420" d="M456.016,236.1a1.392,1.392,0,0,1,1.573-1.549h5.933c3.431,0,5.695,2.6,5.695,6.124,0,3.55-2.264,6.2-5.695,6.2h-2.478v3.264a1.385,1.385,0,0,1-1.549,1.549h-1.906a1.4,1.4,0,0,1-1.573-1.549Zm6.433,6.481c1.191,0,1.668-.858,1.668-1.906s-.477-1.835-1.573-1.835h-1.5v3.741Z" transform="translate(-417.12 -234.554)" fill="url(#linear-gradient-3)"/>
      <path id="Path_1421" data-name="Path 1421" d="M525.813,244.824h1.954c1.215,0,1.287.524,1.454,1.43.119.6.476,1.144,1.144,1.144.62,0,.953-.477.953-1.263v-7.291h-3.169a1.385,1.385,0,0,1-1.549-1.549V236.1a1.375,1.375,0,0,1,1.549-1.549H534.8a1.375,1.375,0,0,1,1.549,1.549v10.151c0,3.789-3.026,5.719-5.981,5.719-3.121,0-6.1-2.144-6.1-5.385C524.264,245.372,524.693,244.824,525.813,244.824Z" transform="translate(-472.143 -234.554)" fill="url(#linear-gradient-4)"/>
      <g id="Group_1320" data-name="Group 1320" transform="translate(22.13 0)">
        <path id="Path_1422" data-name="Path 1422" d="M369.489,236.11a1.4,1.4,0,0,1,1.58-1.556h2.3a1.9,1.9,0,0,1,1.867,1.053l2.825,5.53a33.956,33.956,0,0,1,1.46,3.16h.048s-.215-2.011-.215-3.16V236.11a1.382,1.382,0,0,1,1.556-1.556h1.915a1.4,1.4,0,0,1,1.58,1.556v14.1a1.409,1.409,0,0,1-1.58,1.556h-2.3a1.89,1.89,0,0,1-1.843-1.053l-2.849-5.506a31.818,31.818,0,0,1-1.46-3.136h-.048s.215,1.987.215,3.136v5a1.391,1.391,0,0,1-1.556,1.556h-1.915a1.409,1.409,0,0,1-1.58-1.556Z" transform="translate(-369.489 -234.554)" fill="url(#linear-gradient-5)"/>
      </g>
    </g>
    <g id="Rectangle_328" data-name="Rectangle 328" transform="translate(47 349)" fill="#fff" stroke="#ffebbb" stroke-width="1">
      <rect width="55" height="30" rx="8" stroke="none"/>
      <rect x="0.5" y="0.5" width="54" height="29" rx="7.5" fill="none"/>
    </g>
  </g>
</svg>
